<mxfile host="app.diagrams.net" modified="2023-08-10T19:31:52.706Z" agent="Mozilla/5.0 (X11; Linux x86_64; rv:109.0) Gecko/20100101 Firefox/111.0" etag="ewtQgD4ijNHeaQVVKEsG" version="21.6.7" type="device">
  <diagram name="Page-1" id="dBQ08_r3tiN0fTnl6pcd">
    <mxGraphModel dx="927" dy="391" grid="1" gridSize="10" guides="1" tooltips="1" connect="1" arrows="1" fold="1" page="1" pageScale="1" pageWidth="1200" pageHeight="1600" math="1" shadow="0">
      <root>
        <mxCell id="0" />
        <mxCell id="1" parent="0" />
        <mxCell id="9ebUhUrwIjOz1uz_46qt-1" value="density-matrix simulation" style="text;html=1;strokeColor=none;fillColor=none;align=center;verticalAlign=middle;whiteSpace=wrap;rounded=0;fontSize=16;" vertex="1" parent="1">
          <mxGeometry x="140" y="40" width="210" height="20" as="geometry" />
        </mxCell>
        <mxCell id="9ebUhUrwIjOz1uz_46qt-5" style="edgeStyle=orthogonalEdgeStyle;rounded=0;orthogonalLoop=1;jettySize=auto;html=1;exitX=1;exitY=0.5;exitDx=0;exitDy=0;" edge="1" parent="1" source="9ebUhUrwIjOz1uz_46qt-2" target="9ebUhUrwIjOz1uz_46qt-3">
          <mxGeometry relative="1" as="geometry" />
        </mxCell>
        <mxCell id="9ebUhUrwIjOz1uz_46qt-6" style="edgeStyle=orthogonalEdgeStyle;rounded=0;orthogonalLoop=1;jettySize=auto;html=1;exitX=1;exitY=0.5;exitDx=0;exitDy=0;entryX=0;entryY=0.5;entryDx=0;entryDy=0;" edge="1" parent="1" source="9ebUhUrwIjOz1uz_46qt-2" target="9ebUhUrwIjOz1uz_46qt-4">
          <mxGeometry relative="1" as="geometry" />
        </mxCell>
        <mxCell id="9ebUhUrwIjOz1uz_46qt-2" value="error" style="ellipse;whiteSpace=wrap;html=1;aspect=fixed;" vertex="1" parent="1">
          <mxGeometry x="60" y="170" width="80" height="80" as="geometry" />
        </mxCell>
        <mxCell id="9ebUhUrwIjOz1uz_46qt-3" value="quantum states" style="rounded=1;whiteSpace=wrap;html=1;" vertex="1" parent="1">
          <mxGeometry x="190" y="120" width="80" height="60" as="geometry" />
        </mxCell>
        <mxCell id="9ebUhUrwIjOz1uz_46qt-4" value="error&lt;br&gt;channels" style="rounded=1;whiteSpace=wrap;html=1;" vertex="1" parent="1">
          <mxGeometry x="190" y="250" width="80" height="60" as="geometry" />
        </mxCell>
        <mxCell id="9ebUhUrwIjOz1uz_46qt-7" value="depends on" style="text;html=1;strokeColor=none;fillColor=none;align=center;verticalAlign=middle;whiteSpace=wrap;rounded=0;" vertex="1" parent="1">
          <mxGeometry x="120" y="130" width="60" height="30" as="geometry" />
        </mxCell>
        <mxCell id="9ebUhUrwIjOz1uz_46qt-9" value="X-type error \(P_e=p\)" style="text;html=1;strokeColor=none;fillColor=#647687;align=center;verticalAlign=middle;whiteSpace=wrap;rounded=0;fontColor=#ffffff;" vertex="1" parent="1">
          <mxGeometry x="270" y="100" width="180" height="20" as="geometry" />
        </mxCell>
        <mxCell id="9ebUhUrwIjOz1uz_46qt-10" value="Z-type error \(P_e=p\)" style="text;html=1;strokeColor=none;fillColor=#647687;align=center;verticalAlign=middle;whiteSpace=wrap;rounded=0;fontColor=#ffffff;" vertex="1" parent="1">
          <mxGeometry x="300" y="120" width="120" height="20" as="geometry" />
        </mxCell>
        <mxCell id="9ebUhUrwIjOz1uz_46qt-11" value="$$|\psi&amp;gt;=|1&amp;gt;$$" style="text;html=1;strokeColor=none;fillColor=#647687;align=center;verticalAlign=middle;whiteSpace=wrap;rounded=0;fontColor=#ffffff;" vertex="1" parent="1">
          <mxGeometry x="430" y="80" width="80" height="20" as="geometry" />
        </mxCell>
        <mxCell id="9ebUhUrwIjOz1uz_46qt-12" value="fidelity \(\downarrow\)" style="text;html=1;strokeColor=none;fillColor=#647687;align=center;verticalAlign=middle;whiteSpace=wrap;rounded=0;fontColor=#ffffff;" vertex="1" parent="1">
          <mxGeometry x="430" y="100" width="70" height="20" as="geometry" />
        </mxCell>
        <mxCell id="9ebUhUrwIjOz1uz_46qt-13" value="fidelity =" style="text;html=1;strokeColor=none;fillColor=none;align=center;verticalAlign=middle;whiteSpace=wrap;rounded=0;" vertex="1" parent="1">
          <mxGeometry x="430" y="122.5" width="70" height="15" as="geometry" />
        </mxCell>
        <mxCell id="9ebUhUrwIjOz1uz_46qt-17" value="" style="edgeStyle=orthogonalEdgeStyle;rounded=0;orthogonalLoop=1;jettySize=auto;html=1;" edge="1" parent="1" source="9ebUhUrwIjOz1uz_46qt-15" target="9ebUhUrwIjOz1uz_46qt-16">
          <mxGeometry relative="1" as="geometry" />
        </mxCell>
        <mxCell id="9ebUhUrwIjOz1uz_46qt-15" value="CNOT" style="text;html=1;strokeColor=none;fillColor=none;align=center;verticalAlign=middle;whiteSpace=wrap;rounded=0;" vertex="1" parent="1">
          <mxGeometry x="300" y="145" width="60" height="30" as="geometry" />
        </mxCell>
        <mxCell id="9ebUhUrwIjOz1uz_46qt-16" value="&lt;div&gt;error in target&lt;/div&gt;&lt;div&gt;changes the state&lt;/div&gt;&lt;div&gt;of control and target&lt;br&gt;&lt;/div&gt;" style="text;html=1;strokeColor=none;fillColor=none;align=center;verticalAlign=middle;whiteSpace=wrap;rounded=0;" vertex="1" parent="1">
          <mxGeometry x="390" y="135" width="130" height="50" as="geometry" />
        </mxCell>
        <mxCell id="9ebUhUrwIjOz1uz_46qt-18" value="physical quantities" style="text;html=1;strokeColor=none;fillColor=none;align=center;verticalAlign=middle;whiteSpace=wrap;rounded=0;" vertex="1" parent="1">
          <mxGeometry x="300" y="240" width="110" height="20" as="geometry" />
        </mxCell>
        <mxCell id="9ebUhUrwIjOz1uz_46qt-19" value="\(T_2\) dephasing time" style="text;html=1;strokeColor=none;fillColor=#647687;align=center;verticalAlign=middle;whiteSpace=wrap;rounded=0;fontColor=#ffffff;" vertex="1" parent="1">
          <mxGeometry x="292.5" y="280" width="137.5" height="20" as="geometry" />
        </mxCell>
        <mxCell id="9ebUhUrwIjOz1uz_46qt-20" value="\(T_1\) relaxation time" style="text;html=1;strokeColor=none;fillColor=#647687;align=center;verticalAlign=middle;whiteSpace=wrap;rounded=0;fontColor=#ffffff;" vertex="1" parent="1">
          <mxGeometry x="292.5" y="260" width="135" height="20" as="geometry" />
        </mxCell>
        <mxCell id="9ebUhUrwIjOz1uz_46qt-21" value="close to actual states" style="text;html=1;strokeColor=none;fillColor=none;align=center;verticalAlign=middle;whiteSpace=wrap;rounded=0;" vertex="1" parent="1">
          <mxGeometry x="292.5" y="300" width="140" height="30" as="geometry" />
        </mxCell>
        <mxCell id="9ebUhUrwIjOz1uz_46qt-23" value="&lt;div&gt;QEC codes&lt;/div&gt;&lt;div&gt;with physical qubits&lt;/div&gt;&lt;div&gt;in specific states&lt;/div&gt;&lt;div&gt;to find gain of fidelity&lt;br&gt;&lt;/div&gt;" style="shape=process;whiteSpace=wrap;html=1;backgroundOutline=1;" vertex="1" parent="1">
          <mxGeometry x="435" y="200" width="160" height="70" as="geometry" />
        </mxCell>
        <mxCell id="9ebUhUrwIjOz1uz_46qt-24" value="" style="shape=image;verticalLabelPosition=bottom;labelBackgroundColor=default;verticalAlign=top;aspect=fixed;imageAspect=0;image=data:image/png,iVBORw0KGgoAAAANSUhEUgAAAhkAAABQCAIAAAA7sPBRAAAAA3NCSVQICAjb4U/gAAAgAElEQVR4Xu3ddfg9RRUw8NduQGmxUKRLuvOlOwQEpUs6pDtUGkG6VFAaJAQkJKVLOpSQUBARBex6P3Ked559dvfuje/93m/85v5xn72zZ86cOefMqZnd+67//ve//yd/MgcyBzIHMgcyB4bAgXcPoW/umjmQOZA5kDmQOfA/DmRfkvUgcyBzIHMgc2CoHMi+ZKgczP0zBzIHMgcyB7IvyTqQOZA5kDmQOTBUDmRfMlQO5v6ZA5kDmQOZA9mXZB3IHMgcyBzIHBgqB7IvGSoHc//MgcyBzIHMgexLsg5kDmQOZA5kDgyVA++tInjzzTcfeugh7UN8jFH3d73rXVX8fW8JOmvHSjQ0wHROT/OMSkMUgdMtF1NPPfW00077nve8B8G1NHdOz1AgUXLrrbe++93vDtqGgmowfZuZHzS0gimJpkpwWwBdEqNIrdVAVczNLQlPLcLiiEFAKEwVWAuNmn/++QnUZwT1Kub71FNP/e53v0v0NzOht7tVJnSFZ4jd01gxx2aGl+RYojMoSfT0kbBmqooaVZxOtde///3vGWaYYYoppgjtasXnGl/y+9///o477lh99dWDBYkRUPzP+HXmHkq9SqwvUgMSidFS7NUzTEJSK5Wgv9VAaVBgncPUDhTsKiG59NJLJ5544vXWW+9DH/rQBz7wgRFc9v/5z3+uuOKKzTffPLmT6nw7F3dRvtGrhK34M9hVVKTq0BBqTIoRP4sqUbpO2GpRFcVaQhXE1GJrRpXIq06tB2zRpROtA1kFs2aPOeaYU045hV598IMffO9731tkbwPfhunWz3/+88+880nMKTFz+FTLjNqqTQi9lQaWVKIT1epQGRJYUsLSWEVxxLglvlXl1QlYLXlVVLWqpe+xxx671lprzTvvvB/+8Iff//73F9lbRFLjS3Smjp/85Cf//Oc/146XG3vjwCSTTPLPf/7Tsv/Nb34z5ZRTWvCtpNIb/q56hXp9+tOffuutt0bW7nRFdgauckBQQq+s1hdeeEHwONlkk0XWW4UcTAvVEqlMNdVUH//4x10MZtA8ynBwgGUQ+/71r39lsiSaYbVaxQH1vgRZf//731977bWPfOQjQzQ0DY63efKdd+wcsnnETu42jFW6Vfzp2rqy5g3xpz/96fXXXyeh0bDMZK8h5fBq1dlVW4pciru1MLWNHXIYWEnresYGVXPf6t1qSydk9wzTlofN9Lzvfe+bfPLJjc6dWO0iRyFLz8T0t+Mbb7wBoUi2Fm2riWsH31YBmtlSO2JzYwPC6q1qSxV5EaYT+CqGVi3N2Jrv1uJs1YVqCXl1+cM7H6rFI0RLFU/Zl0CagBg73WTN5FpsL2Ip3WqArI6dWqq9qi0N3UfnreIUrHCfoNOa/8c//sGIY2krEQ5yRqSM1I9+9KNtxRrLu5UmdEXzAOQ7fEMMhQ9FqtJ1XPRAsOUpKAl6yFH8R7tc9EVGXQm0FTA9Z0DkSa0AGrSu2qVbFnULXx1xwC2jh2CUfOxjHxMHkCAmhGrFdSurVfYlJd7pJvDpUBUGzPexMhx5yEiKy/sdJ1ITfI3gjIiYoEeQgDx0txyQSgpQitZn9LiQ0lzofzi8bueY4UeKA7Y5GISS1WompuxLakXOGta2N6POd3GAja71xKOBnyUaqM4I7t9kbemKA2TXsME+GrSrOB161arS1dWsM/BgOFCyWqUYpZV2lX1JLa0696wK6Gg1du1Y3cLXIhn9jUMJIe+++24nI2ybD2WatQRwJyVhjXtxjMUJtqW5VrgdasvFF1+89tprdwjcCiwIKOpS9aRJ21m0Qt6X9pEdvS9TGBiSDm1C+VnFoWhh7dy6ciQwdAtfO+iobUyzi4veuO0k2Fe/+tXY2Ox5ph3yuUOwnskY8Y5jcYLDSvMRRxzh5PoQ5VJV76qqD+ss2tI/sqO3JW/UAlTlmEgt+5LM4lErxSJhv/rVrzbZZJO//e1vPVNbqxNZ+j3zc1R1HIoc1aO23357D4gMfUZFMoZC0tApyRj6xQFybCXKsi9JQ7bq0C+aJlg8tUa8W244G3PnnXfusMMOPR8sJt8qJdWWbgkbW/AvvvjigQceOGppPvLIIz1A3iF5RdkNRY4UQ6lz4403fuKJJzocugoWBPSLpCr+MdFy/PHHP/zww6OTVNbjzDPP7C9tZV+SxO9iKBrZXyrHE7a+OGlIPvGJT1x22WU9m8Ja4faFtjEkLC755ZdfHrUEe16k1Vn+YaXZ8TBni9dff31PqPU2UFWRqi29YR5DvdSiR+1hFsu/5yJ5rekgl7IvSSJ3MQGKf7g1tZUYehiXmnInXptx6qmn9tC9Vrh9JK8Hkgbc5Yc//OHtt9+OjRdeeKFXkw149Obh7rrrrvPPP99zSA888MBZZ53VDBx3awXaScdaGM8beYiVO/F2vlqAbhsnKNW6//77zz33XI+Ly0vOOOOMnosH3TK5E/i//OUvSJLvemjaEugh+2ylaWVfkqiZoGTfiQxGIYyje55E3X///b1Zq1vyyLeqE9WWbtGOIXgv2fzUpz6Fh5/97GdHz7PiwUBPIHqZlccyvIkEkSPCVTSwOJttthmX1hsBRXWaoFTLU36Uivi8dGSkxNdKZIInR0AnnXRST7DTsfQMdSv4zts7OhPcOboMOUQO7LPPPldddVUzkn/9618JQGmb4m6zzTZexLTAAgs0dyzerV3btQ6mc5xDgXzwwQcfe+yxIgZavuaaaw4FZ/T1xpprrrmmhGf55ZdfeumlPc2rzOX1us2jiOCuvPLKEozuvFFzx07uwgx/EfKLX/xikHTDDTfMOOOM8YqUTlAlmFrhPv7441/5yldqbxWRe69XempV4itj22WXXZT+eyjXjJJ4VCRePZm2+OKLD/FUfTDtpz/9qVpWkYHeAr7wwgtPP/303pA73XTTcSrNsvvZz37229/+tgiDMOQ19+rk7tNPP33PPfcUIUmfDiy33HISpldeeWWxxRbrBE8RpkGm9XlJW4XrloI+witw33jjjbfccktpBfZxiIGhqvLZ0SwfkWDDR8qcHveBIZ5Q/drXvkZ1BkZ53weyAqXe3//+9z/3uc99/vOfp+uWYl9GEYJZUZCrOXzhC1/wHghVI0zrHLkI/dFHH7VXSeVgsIcBW79eEyAxgs1kYRYnXnLJJcO0hUNt3n777Qa9ilvFZ4xoF3eiBvitb32rc3aNNkhByTPPPIPJ9p8w2U+ibLCJXdEv+YD5pptugpnbEBk899xzgaHDyEw5EQY+CQbKf+211/ZrIVtH5513HuSWAORe/Qn5EGOCqslK7KrPS/rF6K6k0haYFTjuuOOwg2tV5jvqqKP8xK+2HUcPQImxVW0LgFqBaSx1Ty2Wh9f9qm7LaaTVncwXqiq2ho4skc06eXFXVrg6wVZDMNOmw6MsssgiYCxR+UQr4NT+xz/+kS2WmTVDAoN8pZVW8oznHHPMYazS+8eK3V966SWebMUVVyw26mIushlr0su3wXgdb/OgYgIxvnd6Nq9etMED54ILLuiCI5l77rmbMbe9W5JsEb5WtQCUtCv9jG05eYlajcNdbYduNVYDSbpwcrLt9G6xTkbpXLVgi12fZZZZZrbZZvPzl7/8ZdukRM5qTRFf7XsrEoWht0QW4uOuYggA1QWr0Qqdc845p5lmmoQhaNMYGOgDj9LMgViMVr2sugHSFCghrtJbxChd2H5rgB/irXpfMkSkw9TdbiS377mKDTfc0Oakx789o7v77rsP03DDgbbVSu5wrJJ2xvqMRvZUpuwZRul8W9saw5WIaVicDozZS/zSl74kwF9nnXX48k4IfvbZZzn+r3/9650Aq8AgYOaZZwZ88803L7TQQs2vWmDu/a2C7QSpOjN3wAEHtDryxCIw/XZEOBLxqVk7S91A0n333edEQ9GXCNg90GPpWuS//vWvrc9vfOMbDRhYRrQZi8ESYx566KHKVq3gY/PTxBnT2267rUPetsLWr/ZQrVCJ2Jbbc889cZtV6nyIZv8ReIjG05EgfZjIb3/722xf2yGElTjMFIi42wJD++STT8q31J24atZ/jz32aOglf+U7ZaLiBt8HHXTQLLPM0go+ic8oshP/85Ega6d/9NFH77rrrkVfQvPpJAUAr9618sortxor2q+77jp51eyzz64svMIKK9jQagVvuwtVM800E/z33nsvJfzyl7/cCrihvUOrVa5xpfl32L+Bgv7esp4vuOACOLHPt5++vQY5RhEAci3kWiu//lIyUthivdWOTlg+zCXV32KLLRzorAVr21jLPfr9ne98h43ba6+9hM9S5gilm7EJ/diIDTbYoBks3bVZYgoOoRrLybRmR8JrMm1cCNPjj8WY4IZn60IrIDzttNP23ntvwVoalPtZddVVSxRWNZ8/wFIxoDUMA1fRPKlvfvObToixGk5sK6Y3HOTHcKYENrGRrbJf/OIXRczLLrusRLB5rH7drRV9sMI37qFkyy235Gh7G7HKVXhYbV45XO+2226LFaKWtvjJ4uCDD2ZMO3EksD3//PO2TIjv7LPPJr5kNFoN5LEeO1W0V4CCQmrTClJ7bPJhiyMwTFARcqmllpLWNPSNW4HBX9malCiqGd4QdH6VVVahLXY7HMRqOLcdmOU9J5544iGHHFJMYsRVXW2vNlMVd8t5SRJ5rW51gnGYYB555BFMUVCOrUjhIVLjWmS63XbbMVuq7QCYvGGioe9oqwssrV5jdSKCEga6KzjabbfdRG1V5G3pr+1iBTIl9ut0FzsLCRW74uCTJWr9zzPPPCXMUgEbttKjfffdtzqo/WSHBUrtYVKFvfxEZCcJgIM0oqwoFaZU8C3yiODiJELsf+IYc4yqueaaK62cyHisHGUEm/DFFEHEXdzklECI9Tgbnwgw99tvP70icjRNNKhrC/SKxAt1ZSpi2GgUDHoQjB1h6Vg9JKW9WcueW0JACkupLtNmYS+66KIXXXRRKo8Eqr6vdmhDxJ2oVtAAMrqobRK9bTlVmraF5cBfVKfaEaWtr776KmXg1EOOUdikP3iOq1itMlNSlZNOOgmHqcRPfvKT0i0/qVypSygAlSA+Qf2ss86aehmOdglKkvhsKlhBzj44WIFmVBVrrR5u1aISGxgEVWRqS4m4naXk3or0FNeFU8Kx5wTnySefbMdOWYxjM0fpu5TX+sINS6OIwVgqAXL01Ggx4mokzcQBG/LoDwBKS/mLB0liTS255JLwx7HAhEeFtm2RtkhJJ9dlX5L61JqVTjAOE0z42KQH1ryBgnHKL8rra6yxBnWPWBjjhomM/qJNC7UWLRHUrsAicAkgqtsYwlrxKLVoo7FWvlV6LBVu2yKhjjoK8QzBhYO05KwK67bqS3gRR7CITDpfHaiac0grjaKXNWl1FZ9psOoUiyy8TTfdVEo00UQTIUMUzw2E5UWSIWKXyP/UMt+swOmnny65iT8fixW1xBJLMCVcbLEUZhaGTn/4Zj2bqQjR4aWNNtrIQFFVD2MkDJSWGSJY4a7V+6Mf/Ui6bKcqGSO0uWUs3yalyKA05No6P/zww7lYRT8xbDAtaDMRlo7IqsXJIC9E1vzdVlWKguhEtQwXOONbF4wiGpNlxJstUYzVliQuAUzwihyNSI6mrI7KJTCjhx12mNC7lH+IynW0eRM2tMQWlr3UEimvs1V4LudI5785hp122kmRXMSgOBwGuig+yq/+EaoldjnnnHP4e3qYfImUl3xVwIiPqiTFCAJoMi2NMxq25UOjaKB9ERIP4kUeXAKXCYMKalE5mTj7wVzm5ZdfHgi5Lgpj9JhjbPIHefJgyYeVlXwJxiKPIMRn4irbhCW2IA9tzbtBpS7NP1vWuNrqQTPevt8NXxKHtRWvLXh+JTy2yCI0O2ycu30ffcAIu2V+yUxQkYjyhk52rMOoF9tXtOAtSPmBgNqg1kNx6OJwatlshONJLGnpU13tytmxomCj93rFEzPUXQri9K1KlPg9KgACMaMLjS1djGJx0MPZaBcy8weA0RkFB0vdirJgIuLjCNObAuQTW221lUBPxdnUEM9V6Gudg3fhE1Ys8pLIlpCXEl9KqAvKixMPRQ2OxYnMSH2cqOGowDMc6YhqeKkA5pVFQuLiwGaO7KlSxtCFGBiSY0i+oRPMId8kZaqFpT6d9G2GCdEQYphmvMJ2+ZkIQJGQ6ccrCiBHKeEheoyiGLxCWbemmqq6bRYOO8RnM0Z8ExwgBQrM+M4333ycRIxSjFmL4ouQ37IqKnxRMRgfuyzpCBY3wG+pl4QmM1ChUbrLdF2nYAIxQZt1oRxKqVDCddlJorSl4QCHtnDqFFtHamNpcMBcURGYI7QzxIcJUPBE9vO9730v5khjHRf0NmixTrOMau+2sk5lX5KoKZJVi3GQjahnboxI/PRMxO20j4s4IaPeGt41At5iQXyQRPZxLMxvJbDaUQDrEr0omZzAdkItZLeNYeywFJPVFuil5QGJ2D9y5waEqo7VaKgWXlSFeIablB34VqGOoMF6YE3kIhaDoDhKw7HbCQ+SLAlLbscdd2SSIglAYWzeBrAtesZI7OauVaqKlcJS69byU2BhHxn6RBjPVPR2rIMnwBUPVWNggyFlD2yQhV08phX2ESq2gD9zNkSdii/UIoqMpAp5QZsUKqwVvTUpiZQN0ih/CZlNLQq5tRzruTHWdefaVYSkBgw9XlXrTrX0FG1I8TqAzZFoMJ/Jk2cIICQHKgpkLUgHQxOwrvZQEzBCL3nxWhqMwj2LAKwLdXLicx3EJIlQCZXVmGkofJhyh30ocOQrkonYxE6jGD2SGAiJT4Fdph4VEXpi42fnnXdeffXVrRo6nHpRrbQHRlvi4LsWmo+xEr7wrHBKv0p5arguqRLP4XgItZFXwQxndWvNmjIjmg8z9tqGTCc8ORW5vuXTfMKwlp8aq6IMyHKNKxgaVqlzhWs1ar/a2Ys4xynN5ISpUfFMJ0mE/4g959H2DHMPTAjOJ/6HONriAW9xytXUYVrJu4ikE/mG+tI5OGXxNki7enTOs1ptybaMURuPJV5//fXgrd4IvsJYJJ2MiEHkqIXNVS6w2E444YTYwEiWJeYewA5Bxs5HYJZzhGU3igVvBbpgGZ0USHT+33c+6SdzX6TNWSCxc6tJMVtEwBxcffXVtFHGo8IQKxZ5pYnYsOWNfIweBKifBNnBasauE3PZipja9kRD6aIWOBqDn0yYqJy9S9W8hi6BvKhgVWULq233SKWUWRQaFveHpJi6NBy46vBBUcY6xGc7HcE8Uxol8ZaAQkbSU5tbmC8DZlJU86hiNdGJiatBSTR9CD2ySeKLE/MqJZwBu8R8w+MutYlewovEN75Nu49xQz/VwSLgqOVtcAxmxzokZEq+rZhACQVARc0X+dG0QLv55pvzNFS0dpS2jeRSa17KviQQJT1ri3cwAJGlyvjwsXicLkaX6AkQ0KwsIG4q7dwOhsLhGyXE1uBOAsD0RStWpnA7SrTNJFXXdhVePCV+obWRi1QB+tJiPXjJeS0qS5FtFVGK4ISKEfSFMlgPJU2ABysA4wNsAWx512LWCGEYbsai4eSbYLkVhmp70CZprp7URF7sAyEvaBPqxiMFVTzD0VJc/2mBh11oUIboxYsg2y6UulMntDWoa+oeYQpDX9xbjrvCBcbOuSa7BZSw7bMgDSStu+66re6SSDxwzvKSCJrDWKt6daLwilTVncIYy+kPzgnCWImtCs6Sng4Td2h5PhkGTyOSLoqydnZiLGFf7a3U2BZJbfcGVSnXuGr7j3hjqF3p/EyiymrnQhQrVcBwsJPz6SM+ow4JiDXZIL+0aC05NSIblaW8uNVAnWiS8o5lUMt2JKnhcN7iuOEIn4NsK0c85R0Hgkqzs/uNHlSpOFX3XZXF7JqoMzhqxae2feJP/sqdGEjk2GHRpsRMPJfcIAkrVMDcDV9SG82sttpqau6sJItQfAqhlYAG2V6rDKmRFeMFWfbS85vNFNbiLHYJXlW1i1935ImUBel23WJPvnms3u56dtUuAglKEO32QxKbJbXioypqpNRel9hdaxiUalEqAVBUt7pK5RNa+3mKnMZVQJMU4gMXVdpBScBSH/A25+0Wt3JdDQR3fqtBrPV5SeeoBwPpERt6HOdhqiOKL9S+2DWxaqpFVsHGSgtpFeuYSXhFKdJpHy3xTXEF145vtcp5q3OPjtX2YgtTruY7wwwzVMHYF+prqbulJM2yR4xfhRxii41uu+iCYtsJslIXW2+9tQJxrU6zQTJUa0lg0ao0keixu8ucsVxyLzh7oFM8y8jGZj4myKLUT7ix0tHewOyha96ORVCa6zDQZkd62+WuZQ6Jo6SoWn7WapdBU7trc8SfaqbVlmO1ZEQvxNhLoDPVJzDYTWciEvLiEd62I3YFICdw9omlpmNRg7JPExFJFQ8mEIfnFt1Scm8OPmQ29jOYdce0KENvvoRGOfXuo1plXaueWYy1p7Exk9fxoBXabMUBbqv8EUXFd3WyvbU0+ZJQvt7w9rdX7MQ24KSU1dpXA/xI3WpYXUGSBMtEgJUgi7Jgx6mXFh9grKHlp5Bda/SHMlPF5dqdTzgpaw8vhuuBGJIt1kDECgL8VniU3TuninHENNstTpfKflrhbGhnI0pmIl4A06qLGLwahtcCCw7QFobjBz/4gUJN21fXFBWmduXyIrxdBFsN2sVoxtGpgHHt0FHtc0K1lBcba8kIAMjtLddiQGHnQqzF0HljScMbSo5Yl/au2+IXK3ii0JaP6KfnfxgqPV0k12ll4jCzYQ+vSq09JFEULyWJF3jVhj7VXqmlpDypvcmXtOrTMEy+NUQO2IFsi8GmmfMbcWiNKljtzopUi85t8UzgANx2ty+YGhjHhoM2pRubEG2nkBSJJ3DUxwaJI0ClbKYtkgCYkA0IvnW4t9QhM/sIRsRDMRcRwlbpafIlCXpC1okqy4bY0hCswdwVq6P+4Ekr5YJuqTJQiRItXY3e7YgZfsQ50JV8VeeF7c6PxiOfPRBfVLDevFEPg+YuI8WB9nvvjiJ0ci5opCYwtsZtdiRdzQUq5Qg7Fh2+PLGKvGhZlJKqj6NXu+SWCYQDNo2dYbED15eTLAp0XbmxCYTJY3GarZISc2npS0L2HgErvRhgLM5/9NDcr9ifRJW2PLvgdE1vsyt6NV7E6a+82nvj5Cjp1ccwxW6NNMLrYVoV6NtOOYgJbVfob7sV3BZhBhhZDhS1q5WmlWtcyaDoQAk8+p9NzMhKsXZ0m+3eUOIUytBPT4kVHPzIJYhaPo+hxn6tUwvfaQ6HyxtetN4hW5DEG7U9NdAhtgw2ghxI2tWgZmVfknyOB8ud6G/oOYITG4tDBydbufRuZ+Q1O97ZMPRVqnrpMeahO6Ru6c/wfeRAf1XLKUGPVQ/xJFWQ5Pilg0x9nGlGNWAOdGX/y74kaPU4aHoRWIn6ojVsVuJER0p4i6hKjX4GvO80RBEmNQZA8RvaREnt5FuNlegpTao4VsAUAdJwtbdK7Arg1D1eP15LZLVjq5Z4JrH6hsRW8LXtaHC63JsNS1NLwNUpt+JS6pKkEC1JlLXSgS0JsZbCaAywKkAQUx0RZKIzEaCxeaxil+pYqSURk4hPt4KS4uhxq8SEaKxSWJpIAw0ltPFTVarnHfLSWF5219s/JhXxmI6/vWn1pzJp+qlLVVJuFRvjp+9a1hWVIcEkiZQmmH4maVYBEsIiqUUZlQiOQWtHrGKoDhctJXqqHYst0SXIKI6bYBKF6W61eytKirMDU3wrRAOS8mEeoArx3g7kras+dFRLQ/8SNbWzSjDV6YUMapEYNLCl0Yvd090qhgArfoOpJawEWSKjSECipIgnwZeIqcIEQAJzPMajA46rW/9V4BIZw/RT+OkxbG85496c2EGbT4Mg0t3EtCJw3I1btQQnBlbvpl6JFVVKUq8ScBGyeEt7orOErYqhSFv1ujTNtgABn+ZSnW8twlqwNAt3E8Li1Iq9LHhPjFItDzcoKoxgrolCj855aM7z4YxJPIbdSgqJXSVRlrhUC5YaXUT3JNwSP4viKHK1FqwBoDhiGrSExM+SkhRFVkJeVafEh5IKpQkWhwtsVQKKtNWqYupYxJCGTlMIzNoVMJgsH4Gs61qc5bwEkGeFPLtrM1Yl3XGO3p68rZ1ebsQBkvCsr/LUyG5RELRnGz3zGA+TZymPdeXkPKxcXsRGd+1SH+QE4zltquWtHg3vOhskSXmsnjlAnRzPcaLPd4NqlfMS4zErxO9lFcJVMUXRWfVMTc8dkd6KgIZbpeE6h+yZzs47WvPSEWs+3EmDbDrH2QMkrpIyEfvYyW/F5B4wj5Uu3WpFt/AD5oPQRJjCnQgBR9ydyHpVUNmQeC1V0q7+8rC/2MirirDaMmCxjpLhaBR7xWqxXa2C4HpLzZ3QBt8ToIkZgPAIg0fxPVKOJOZIviHoLOUBCH0AQ1AneuUzsnplpjQq2ZABTDwPMQAOhMlqsFr1viQoyyZm+CQ04qs9TS1LefikPHjMo0evzD2r1uAVYFhHbNauJl8yrGRl5JkDmQOZA5kD44YDLZ97HzczzBPJHMgcyBzIHBhuDmRfMtwczvgzBzIHMgfGPweyLxn/Ms4zzBzIHMgcGG4OZF8y3BzO+DMHMgcyB8Y/B7IvGf8yzjPMHMgcyBwYbg5kXzLcHM74MwcyBzIHxj8Hsi8Z/zLOM8wcyBzIHBhuDmRfMtwczvgzBzIHMgfGPweyLxn/Ms4zzBzIHMgcGG4OZF8y3Bxuwu+lZz5NEPle5sCgOOBdn/mtJ4Ni9jgcJ79DpXeh3nfffS+99FLq709z/d1hV+gmmmgi/znx5JNPdtUrAXu/70033fT44497j56/R1xqqaUg7A1Vq17+guK66657+eWXvSJ0gQUWmHvuuVtB9r39/vvv32WXXdZee+3tt9++78jHB0Iv4vWXU3OQJ+QAAAwsSURBVKTvRUleDzzTTDP5K8Pepnb55ZevscYaBx100H777dcbho033pi2XHTRRd5V3BuG3Gtsc0Akkj+9ccDSLcr+m9/8Zrd4vCSc+9GLOdhuu+0OPPDAzjH40zp/fFQkwN+iMPqtMDzyyCObbLLJ1Vdf3Qqg2n7aaaexUMUh1lxzTX9pU4XsS8srr7yy2Wab+e/hwOYvxw293nrr9QX5uETCARSlw6Mst9xyL774Yg+TPf/886Hae++9e+irCwWebLLJvErWX7L2hiH3GuscyDWu3kMB60dni/Cn73zEZYFLu4yhK7y6MNznnHNOh72ef/75FVdc0b/Xidw5Cf+DeeGFF84555xvvvlmwqBkERRGyxNPPOF/l2+//fbiENS3Fal33HHH1ltvzTqg6rnnnrv++uulPpdeeukRRxxRIrIWQ6v/RIl/2QsMroslPv/Ed+aZZ15zzTVx9ytf+Yp5nXXWWcXh4o8+a7k0Af7nUsh31VVXveeee6644ooll1zy2muvXWGFFYoSweEiz4usqxUcgGo7PcH5KtsTz7kxCvbCCy9MNdVURbDauhlsVVS5ZcxzYKw7wxGk3/8SEr9oOtGg3GQlxz+kTjvttPJ9t/wPrut11103wHbdddfPfOYzrKSfkZf416AZZ5zRavRzuummO+ywwxR25BzPPvssGPYiikvFmW677baG3mGHHWqnf+SRR/pnTG7AH9utttpqf/jDHy677LJY5P4l3i3uh33ZZ599Ipacfvrpf/KTn5RQSQgMceyxx6Z2dkoLCrWce+65ZsG1cGAGmm222R577LGAvOCCC8BonHzyyQ899FD0a0eGfxHfZpttzFFfOcfss8/u2j+1Lb744mb6wAMPQAg/7ul+1VVX3XXXXf5u9lvf+lYwgQ9TwIF2kkkm2WqrrZR3tJ9++ukSu0suuWTmmWd2a8EFF2zIzGp5NaYbf/zjH+OYZC5mwQfMMsssWi6++GItCrCrrLKKvzDy/0XLLrts5Ct4hc8A5plnHhzDt4ceeghw5CVktNBCC2mXc1MS7cpW66+/PrXROMUUUxx++OEx1hlnnBHiwH9hh8bll1+eGtOrZ555xhDf/e53jU7E00wzjfggep1wwgl6oYd6kzLMY5r/mfgiB/73HwP50xsHwpfceOON/jjdR/GHvVt44YWPOeaYo48+2p8c+/AT/lDd8mbmYhROxU/wfoYvYQI23HBDfzIDfoMNNmCLDz74YDAMMRi7Mq55lyKRUV6L1W67hdn1Aclw+1ionI1ERwVc3/33399qX3TRRV3POuushpDQMAp+MsocHmy8TskK+29nAMlDGN0/MMY/4Zjp8ccf765/W+MkhMOu55tvPjDIYHQWWWQRbiZGD4dqMwkwz7HYYosxZABM+ZRTTtlyyy31ZVMYIJmWa7YJhQJtqZ6fJgLtcccd53quuebiaHE4tasrJjI4J9dm1Js0x2Kvki8xhQMOOAATdt99d2pAIsSKySeeeCLO204DQCuCYyuvvPIyyyzjGt+0hy/xkzRDVdzVzg1QD6p40kknRU1V/kFVSFmIo8hmi4WkQIpINEpEHn74YXhcizPkTK75D/TcfffdrtdZZx05NCnTdqHAWGR7prmWA9mX1LKlo8bwJZZHfGxFqCdETxcrrbSSdtWhtr5EF9Gc1a6IFN31YrXFmFbgvvvuC4/lV6RJyK/x9ddf12jFJhrC9AcZ+go53VIsAsamu5aLBB5RoY36N954Q1lM8uGWWlZxCKGoxpKDEVFq9Cfe4UvkGbqofohY5VVi2PANNoShlWoA3mijjcDwJa4FxTFEovCtt97Scd5559X+4IMPgkkJXNGXRN4m0AZm1nywjMoEw5fsscce2qV6uguri7MY39dVXxJOlwMOZhI9QfgsscQSNAq3w5fYOcMZdj/26tWmwpestdZauCpokM1MOeWUYP4Xm7yTWRLZXnvthcOKaU899ZQLMuU2EodLvsTd2FojO8BWgQKmi5tvvlkXuZTrqFiObxlNOLPL+yVUekgfq1dN34dBZHmZQtUkS5Frgbe3I78CQIufY+AMlKeUfcIzJUJts7uWXvi2WS03Co8SlfGzzz7bSuYqBPK1NNBvZSUmBh5gO++8MzAWpMgIYaOf6mOpkQuRQpla3NIeZoIXZEfgfO2116DVvvTSS6fRZWYJg0pLXCuXSS9UqxAQdqo4dOmaLYOWb1MtccsFDvMoqVgfTj386wS4a1Jklz0nP7EiBHHeeecRhE9Y8CSLEJxMMS4EAYEEJ7l22QwRhy6pJToVIo1wCiNyWSpN3JtvvrncWk4j3VE9q4pPXTciD3GGu+TCzQsCdttttz333FNsNP/889OcasfcMkY5kH3JUAXHeYjyfETKonLh/yGHHKLcFJUf2MWDvtN+ZnVjs5aC2MmH6tFHH1V3Lp2nUinSS+3C9xxzzGGs8C5+WuGbbropiy+uj7i1Fj97Memkk/7q/3+UmEyhCGkLxE9b7qlRQYPdV6yLGWlPcwljNPHEE0Or3W5HwqyOkTDo7lqI6jyYfSZ1MLWshK2WTo0AHDN9++23Y/uXjePVGDumsFWXCbNd2hHphS2oEIS8JAlC8hHutii4V1991U+Ca8UxGqi6BY/qZSSdAUms8k7tTqUrqbXqXmzncvghNNxyyy06kn4nvTLMWOFA9iX9lJS8hIFTIxZxR9IAO6snsVANsOFsJ1mJoDqk4rLFL6i84YYbOA8ANht0jPUWWyzFXlYv86poYGsBQp80XFSlBIyMPjuSesWpfxbB4meL7VgI7Q0nbOR4bKiUnNwWW2yhr70W+6W33XYbg7LjjjsKWouGw+6FzY+jjjrq6aefVqDzrAy0eok6xcLcm/biIzhBDF+i+mE/Ru7FwIWDcSsoxKhbb721FOpCy5EozQu3bSYxmjZX2jqhKp/HZYuKKCkQk8CfGkj++BJZsrQgZC2Nk5Hce++9afr282zL2R6nbMpcsTdWy5wQn6PG8gzSDJioiUliZBhaiKO2b6mRFkkx7b7YKrMlUzxz2En3DDPaOTDhlPP6PtMorYjsEubYeJC58yh2ucmeNXc3lpyfzGXsRhb33qN7OlK80047RUskCtwSQ1AlnsF1IquoXiI+jsQStReinXNiJhh0u5262xpJ5zV5FEYkSkaBAc1yi9IodlyjTBEw3INqe8DEfgm7wLu4q3tkLbKHyJkSYbFHEvsljI7ugtPY3UWhiNiZH7U47RKO2D/Xl9+N/RIFFrecL4hTXoEWWLhMvlmLAiMY5+Vcx9ZLlV3jsuXKK69MfHYhZLGDFUw235NPPllNKQHEXnrslxBceGIAcTii9HwJXZK2QkIKYMQ6RBwqLdnl73Wn5JEyikhAlvZLpJ7B89AHaaiHT8EjUpXShQ8pj0u5TJiTys+9Fxdjd9cOtLBfTsvEsozOnIR9DgUilhqAsy6WHN3yYIcQT8AoCXB0mMmzOK0u31FNYknl/jyBtWcZw6bY7YCTvWs7IrWUMcq2WLkrS11aAE/YDgbd7re7zIfiFR8QgaeEQGzop5oYmrkoP/lC1Tn0+K6OogvHI49hXIS9aadESOtEMo9i28NOrBwoPTgp9hQCo4qrUH9DGLScQfAqfI8cyB6PyaLEloy5x2FWlAulTScOHeEPyqU7MEhluE8Oz0Fhg0aBC3mYzLXwSZisYsb1ls5EVCc1blrwTUxg4mYkTCGC0g6ETPfOO+/EOrdC5dSmlKrsfEhfsM6mRegGD0R1+QNb7rDFQeHYhJMLOoIlLnGMWPFWIzWQDLkmKWFBlM6ovS03o9gaIQhSk8pA5UwEMRlo9dVXdypMTjP11FNTdVmp5DtXusaNNuZzXKM3hvCoCj3r6kn1gU0m8hLfAxsxD9QXDkRekh4T6QvODpEIkqJGeuqpp4ZuF59e6hBJBhu1HMi7l6M0LBDiebjdPoEzUaOQRKGlSprvUUhbJqmBA9IOgotUrwFsOG7Z3vP4i3OJslJZTnq6aDjGyjgHz4Fc4xo8z/OImQOZA5kD440D+RzXeJNonk/mQOZA5sDgOZB9yeB5nkfMHMgcyBwYbxzIvmS8STTPJ3MgcyBzYPAcyL5k8DzPI2YOZA5kDow3DmRfMt4kmueTOZA5kDkweA5kXzJ4nucRMwcyBzIHxhsH/h+4K1Ey5K4nCQAAAABJRU5ErkJggg==;" vertex="1" parent="1">
          <mxGeometry x="80" y="430" width="537" height="80" as="geometry" />
        </mxCell>
        <mxCell id="9ebUhUrwIjOz1uz_46qt-25" value="Evolution of density matrix" style="text;html=1;strokeColor=none;fillColor=none;align=center;verticalAlign=middle;whiteSpace=wrap;rounded=0;fontSize=16;" vertex="1" parent="1">
          <mxGeometry x="230" y="390" width="230" height="30" as="geometry" />
        </mxCell>
        <mxCell id="9ebUhUrwIjOz1uz_46qt-26" value="independent qubit errors" style="text;html=1;strokeColor=#314354;fillColor=#333333;align=center;verticalAlign=middle;whiteSpace=wrap;rounded=0;fontStyle=1;fontColor=#ffffff;" vertex="1" parent="1">
          <mxGeometry x="390" y="480" width="93" height="30" as="geometry" />
        </mxCell>
        <mxCell id="9ebUhUrwIjOz1uz_46qt-27" value="perfect operation" style="text;html=1;strokeColor=none;fillColor=none;align=center;verticalAlign=middle;whiteSpace=wrap;rounded=0;" vertex="1" parent="1">
          <mxGeometry x="84.32" y="520" width="60" height="30" as="geometry" />
        </mxCell>
        <mxCell id="9ebUhUrwIjOz1uz_46qt-30" value="" style="edgeStyle=orthogonalEdgeStyle;rounded=0;orthogonalLoop=1;jettySize=auto;html=1;" edge="1" parent="1" source="9ebUhUrwIjOz1uz_46qt-28" target="9ebUhUrwIjOz1uz_46qt-29">
          <mxGeometry relative="1" as="geometry" />
        </mxCell>
        <mxCell id="9ebUhUrwIjOz1uz_46qt-28" value="imperfect operation" style="text;html=1;strokeColor=none;fillColor=none;align=center;verticalAlign=middle;whiteSpace=wrap;rounded=0;" vertex="1" parent="1">
          <mxGeometry x="24.319999999999993" y="560" width="60" height="30" as="geometry" />
        </mxCell>
        <mxCell id="9ebUhUrwIjOz1uz_46qt-29" value="gate error" style="text;html=1;strokeColor=none;fillColor=none;align=center;verticalAlign=middle;whiteSpace=wrap;rounded=0;" vertex="1" parent="1">
          <mxGeometry x="104.32" y="560" width="50" height="30" as="geometry" />
        </mxCell>
        <mxCell id="9ebUhUrwIjOz1uz_46qt-31" value="" style="shape=image;verticalLabelPosition=bottom;labelBackgroundColor=default;verticalAlign=top;aspect=fixed;imageAspect=0;image=data:image/png,iVBORw0KGgoAAAANSUhEUgAAALQAAAAjCAIAAACyzLeeAAAAA3NCSVQICAjb4U/gAAAJqklEQVR4Xu2adYwUSxCHH9zhcrgEd0twewR3h+AaNDgEDw6BoAEOh+BOgmuCBJfgLg8P7k5wed/RSWeY6Rlmh51lyc3+sZmtrumurv6V9kb5/v37P97H04BKA1FVRI/maSBCAx44PByYaiASgaN27dpRguwzbNgw05MJgoHQIJAhECIcOHDg06dPXoLlk64ji+cYOXLkgAEDfFKNxxwpwHHy5Ml3794VL17cO2+fNBApwOG5DZ8wIZn1OceFCxcePnxoPVfmzJnTpUtnzRM8o5cuXbpz506lSpWCRySdJHfv3j1+/Hi0aNGiR4/+7ds3cqPYsWOXK1dOsJ0+fRr5Y8SIQcL08ePH7NmzZ82aNTB70XuOa9euHTt2rF69euXLl1+xYgWa/e/H59y5c3v27Bk+fDj0SZMmBUY4v6wyevTo/v37G6diO/ny5TPSA0/hyF++fDlz5syKFSv27t37/v37nz9/lmLwfPTo0cqVK/fr1+/KlSvUW4GTEDwaP8mSJYsTJw5CG4eaNWs2btw4Iz04KTdu3MidOzfmKMXbvHlzmzZtmjRpkilTptDQ0OARu0uXLpz6unXrlCKB48ePHyuH3CPqwwry4S2QAxTj5YwgNaMbOYOBMnbs2D59+mit7d8fn0SJEjVv3vzWrVvBIKSQAU8WEhJSpkwZo0j4lTx58iRNmtQ45CpFH1ZYDCn5Ll26tHJhEJMmTRrlULAR8c979+5t1KiRVjBgwSfYRH369CnZHu4hLCzMKNu+fftKlixppLtNsQUOfN3Vq1eFKClSpMiWLZvbYvll/gkTJnTv3p3Y4ZfZXJ2E4yc6mBkk5mo25KpUCsVhbWTLBQsWFAsj9KJFi9auXSt+lipVylWB/DX5s2fPNm3aRB7trwkdzzN16lTCNEn9woULDx8+vG3btpgxY2JsEydOTJkypZjW2ltfv349Q4YMjgVw/KIeHOzh0aNHGTNmXLx4MbB4/fo1myGURI2q8DH2V6VaA3N2+Fmrbt26v7kcC1FSdejQgQrQzqLu8VBoJE6cuGvXrkmSJCELpgwknWc5CqiGDRviMMTSIuFQtulevHjBDO5JaDGzHhwCwtSrqVOnBhxIhgnqwrac7vnz51gAlbcyUmpXBXDnz5+3kEMOUe5Xr149VqxY1swPHjxImDAhJqhkA9PU4WfOnFGOBpK4atWqESNGfPjwAU2mTZuWLFisXqRIkTFjxqC9LFmyoGGUU6BAAaUaMao/knAgpx4cwr5btmxJSi+2QU9Miehp06ZRdtepU2fOnDkUOJTpyupGTMLO+fjrVEAweEW5yKmcc8aMGS1atKAaV476RHzy5An18C9fIUBw9kY2cgUQjMCU0xIZsAFfvimXAAc6t044yJyMMzuggNFBgwbhumw6Zj042AY6lQkHErC3/PnzC1FEQ4y771OnTi1dupQICp3907phSRZ2ILFPr6DEyZMnk2O+ffuWByU43r9/P2/ePFp5Ps1sxrx9+/b169ebjUp6oUKF+vbta2SrVq0aRLQaN25cqUYoKJBv0evcv38/z2bJHAlH+vTpjTM7oGzdunX58uXjx4+3+662hcLZ81qFChXM+io0aoA8o61atSKOSrYNGzbQUNf2mnQzMESxbufDqZutLuhYGw8dO3ZEVNRqZAY0NBONdB2Fbl7AmmDEhSpVqmgFyJs3L1mIoBDE2Qse2igz5jdkyBAj3RmlW7du5D323/3Jc4iYYlY1UYiT38WLF4+dHDlyBOVKACZPnpwzI3ayYSUq6UuySeWQjkhs2rVrl0VEEN4baBLIpkyZogt5XExMnz5d2KKd5QLAgzNHXdw8yLXQFTcmkpIgQQJ2jQ6NwgB0paFzUuwRb5QrVy6iXvv27eW78+fP5yCwxrJly5KZ1axZk6EFCxZcvHhx5cqVOXLkoCuIkcvbMTIzSlE6bJglsVgWUBETanHUuHFjKAcPHjSC682bNzlz5rx8+bIYIhnUNtFPnDjBi6DH+KJ7FDwcpn/79m3tEiRAWpdmsXrAPMfOnTtRDi5dCkMOQWlK+BMUkicYyNl10lJwzZo1y7gFTIJUjzsXhrgK4K5D8AAIqqHw8HB+YiTcj7JH+TrJE51i7s60E9IKouUtvDWlE3iVoxH3O/LHvXv38AoUCyBd+z4lCX0O7FXrGAG7Fhzgie0BEe2Lbj/TxmBRakK50JcvX7AMHVyUYsi/d+iUpWT+TeLgwYMpvkjIxDyghPpOmhlEIjW9A1IWuRC4wdEOHTrUuDSGThZIa0AM9ejRo0GDBuKZEoGLJPkKz7Nnz5Y/16xZkypVKu2E/DuO40YD6O3s2bNEHPyZZCBPiggr3BdTbuEbREEB+kRXET7u3sAKPFxTaf9JRfhgCLr4kEzwYBZTJJt/H6pWrYpO2T96FDUtbpMiy7q7T4JJuoph0USvVatWr169iJVAyr2/c+7evbtEiRJFixYdNWoU5ouZEhG0usImd+zYgcPjfwXFihXjgp66l1NXFolLlizhmDhmoUziS9u2bcUzcRagiGciCw1AIovUOZy6ixsyRWolIj4ehfOlxNPW0qTYP4UVI07NKE2bNu3UqZMcXbZsGW11M2b36DQZ2TyHzRI4VW6ntBbp3rr2Z8ZFkU/wtwE7r7x69YoqBiu1YKb8ATeCAZukKCWZ4Cdw53njxo1iaPXq1cJPyFiPI5k7dy6j3OOAUR7q16/fuXNni7Uc9j3btWtHkiVRyZZoR/rXMdiZrXXr1qSuxGCY0Usg/whjRzx4Dh06xLGZ5fi6SeLHj08VQ5ppMTkGAOAEA/4eD4Tb4ycBgr4l3zwTJkgmChcu/PXrV+xWUECJ6F0NHDhQ9BjxTKI+FbOBGJH9yNVDnLlTcl3uC4AnwtEGoElMwLPZWrHYua9DRBNSJRwjDpMIzQU9DszXSVzlx9XzD1auV7iO98tCeHvCAckBGQP2SZWAAxAzgxIqNQCBQoiYhDPKY5r0VCIczc2bN4lWVIL04kTk5RIYHjJFkh4SOA6RaPBT09nCq/xyiNSPEE4u80tO9xhozhIyycxr1Kjh3ioOZiaR59hEmcpRcUXlYBLrVzhdEgUtD4mgCBkQSW50EYqAYpwQZChbLHA6zDmMa/xBCsUYpoMD/4MyKJcW1SZD+HmLDqHyXSURVyGLGgydAEQnQ8npF6K+fe4X1xfgSXr27EnrRl4GBXh1i+XkX0n8FVOIJlQ6W7ZsIVegfYI3cjWMRgFiFtvzhoJNA0QBylTxJ1+3ZfPA4baG/+L5HZayf/GOPdFta8ADh21VRT5GDxyR78xt7/h/V3SZzesMYRcAAAAASUVORK5CYII=;" vertex="1" parent="1">
          <mxGeometry x="164.32" y="520" width="154.29" height="30" as="geometry" />
        </mxCell>
        <mxCell id="9ebUhUrwIjOz1uz_46qt-32" value="" style="shape=image;verticalLabelPosition=bottom;labelBackgroundColor=default;verticalAlign=top;aspect=fixed;imageAspect=0;image=data:image/png,iVBORw0KGgoAAAANSUhEUgAAAOUAAAAlCAIAAAAyQ7n1AAAAA3NCSVQICAjb4U/gAAAMYUlEQVR4Xu2aZawUyxKAL+4XJ7i7u7u7u7sEl+Du7i5BfkCA4B784QRJcHd3d3kfr5N+w3TPsGf2sOw5zP7Y7FZXV1dXl3eH+P79+z/ux5VAEJFAyCDCp8umK4EfEnD11dWDoCQBV1+D0mm5vLr66upAUJKAq69B6bRcXl19dXUgKEnA1degdFour66+BkwHvn37FrAJLnagSiC0FbWzZ88+ePDAalTAU6ZMmSRJEnscPxktVqzYnj17bJgZNGjQ4MGDbRAYmjp16unTp+fNm2dEO3ny5O3bt8OECRM6dOgvX758/vwZmWTJkkXg7Nix48OHD+HChfv69evHjx8LFSoUI0YM+1WC0+j9+/erV69++PBhm00ZJY+UNmzYECpUqLBhw4YMGRJh8smcOXOyZMkEBUt9vXLlyvnz58eMGfPixYsWLVpkzZo1RIgQzGH+06dP//O/T5cuXSZNmmTDip8MPXz48NatW0JvHLN0586dvn37FihQwETh/fv3jx49Gj9+/MWLF6tWrVq5cuVEiRJJnLdv3y5btmz58uUMlSxZEp12zEBQnDhu3Lj69esfOnTIQ+bRrjdv3ly7dg0lZsqAAQPwiSju/6dzH2vziRMnTqRIkXAMKk7Dhg3Hjh2rwv0Q0rNnz4kTJ3rJWOPGjZFapkyZtHQyZsyIV3jy5Ik6ivfNly+fCg/2kMePHydPnvzdu3cB3enly5cRdYkSJdSJduaOf8VzlC5dGues2ocVXMX8s5Dnz5+vXLmSOO4NG7t27UqfPn348OEJcCodDob0KUeOHDFjxlRHSRhatWqlwoM9ZPLkyW3atIkQIUJAdyoyNxRMnWhXb4lpRYsWVacBQYmNgU+L4w/AKVOmtGzZkijhmBmy0hkzZnTr1i1u3LjkQsQsEylSIzyBlaB2795tNeSYJf+f+PLly6VLl7Zr184BqzaKFzB9XbNmjfDVMMHhpUmTxgE3vpzy+vXrJUuWtG/f3ptF0fi2bdtSUcWLFw+9JBs2Udu7dy8QK6W8evWqLBe8YSNozZ0+fXqTJk2iRInigG30lYnZs2dX59rlAxxDxIgRc+bMKaZxVIsXL169erX4W6RIEZWcv0FmzZrVoEGDqFGjCsbWrVt35swZ0n/qAOLUtGnTIkeOTNqD78ybN6+WeRKAc+fOde/enVFMlG8gCRMmNCIjX5LXggULqhTIRv6qhoCQAFXmggULjh8/Lv5Sko4ePfrevXsY/NChQ2fPnk3xCpDmIAW9Kduk0L979265cuW0tamlvl64cAFHQr6Mf0JTX716tW3bNtFlUE/FcwiMCm/0yymsVaNGjZ9qw1/O+RkBicyZM+fIkSMCTH8ATUVwNWvWbNasWZkyZfiN12RfSAcvqFUsmlyyz4W4IWVKYckQsAGSV2kVRi5IFfzBsNn72rVr6Rb9UoR0gUgcY8WK9UtMGwTEXrt27ejRowscvEbz5s2JdVSrSI9gxYchytARI0YMGTLESEokA/QftfQt9VVMowWDL0Ff8RMcTN26dbVUANIwwv1oKzPjFGyA07UiYoSjSRUrVnSQrUsi8+fPr1atmhQ9jb3y5cszishQZTomwhjy5MlDz27VqlVqVbRv3z4sVqbpWn3F/OyTV7p+nuz3t+Lg8BC7h/pKRPVGX+kmzZw58+DBg3JH169fpye9fft2IGXLlsW2xRCS54xM+kq6z6hVcvWP2jIQEKGarCoRaAkdPXrUhI/+0Vzs378/mQMSsaLme/inT59SpUpFDJJLb926lVIJTaV7TxiS8Js3byKgfv36mZikzELdqRtwTuKDnwATRTdiduzYEeDGjRu1e6xUqZIW7gBIxKPb7WCij6cgpc6dO8tFEeOWLVv4i9zISjkCOUSUw51zUkYO48ePDxqztGzb+Vdqapm8ciR0c2QKjOz40ANnvcSJE5O6DR8+XNqTz36QAFklDKTapUqVEh5R8EMCwI/9+/fjAIzmS78JeOrUqU1s4yQQGR0ZCRcXfqZ8AB8MD9rklT6XN47KxA96QHvRZ7K1X8hK8ugZRrVz5045ncwen8pfIjZSMmalSD5p0qQEUolMNY+LIQwyS8+AVovRRbA5b+0owA4dOpDRylH65OB74l/ZJ8HXkw/3HFarCzjLpUuXTuvYkBpDN27cUCkMHDiQGsto5SJem5gnbpBymaaLAsLkMhF32rRp1YWAkB/TuNUOOQByLTl37lwHE8UU0kdPxE48sV+CpAIZUp5q0RYtWtS6dWt1SA1rpJcoJbWEEZkNokhUwyoFAdH7V/sGDb1xQqqzVgXqxW71pvMzlFSYw7bqm5KEnDp1CnNkbxUqVDARZBSBat82YOVc4hutfP369cWLF8+QIYORCGWsuBI0AglV/DX5V8osIoy6I04IMfbq1UsdWrhwofCUcMIPwpTAIcuk0cspYgNoJ/UK7xDQD5hB1bjyIDhwW4YAJf90PDgOLBA0MhNtTQ1xKu4qVap4mL/SisqfP7/KNhAcE4GUEp4nAUjSlGXijDgO5KnOpdI1hTU0QfBsRBZVk2XyCqpWkevVq8fQgQMH1FHMlJse7sqNQ577V5WgMwgHwETBpymrRmoctolDsQp3g1ha79695aJUzZyxyblSGaATKmPIF2VKkCCBcYhghy83IYPZqFEj/LEJDm+1atXisQFwfDyOmTpa4JBsZMuWDT3gL3bIQtQicjrloGldluApSZ8+fQQOOi2uLUwrBu5fMhzUjg4geSBuwkQcN8GutSvyEgCNwobFKMxTdXF8JmQ8wr///qtNXhHXhAkTNPqKKuA7MXGKDCO5Z8+ekRTiS+j+mJbxvb4KBkSArlOnjpEfOsQUi1qpibwK/oVESBi48sBFSWQ83IoVK2hsEddUCuCj7mgSuiVH4YFQsHnzZglBgBwbbkalQE5sVG4UVGTJYBIZcZBiCvJEIS5duiQpMMSDDSPBkSNHpkiRgo2gBLwCozT8ZQal8uMYQlIEh3SmjRTYjgkiR4kkvEXhaASEAp0k1ZhSAsd3oNMERqxaZUy43hAMSId87NixYcOG4UEFkCgj4gt/sSrUF0y4xJRN5QW5CIUFXsoUVdW4EOgQXkUQdolQZO6CeO7cuWlW0+pT18LKqQboyPKiAHul50q8RsoCE+fRtGlTNshf9sutmIzUQFBBEERxgEBpPnA/LibSgunatSuxm3ssaFJ+IUZtkpArVy7KPlGbkiliGCILhzLHyUYKFy4MTc6VEpvQL7cA8U6dOvFQTkLYJtUkmQwsIXYejlklA6ocvIdQZcIqF93ydSXxHXeGYFXiWFS0aNFoY/ONqtDe4rB47CaLKoyWLji2xxb45giIkBikkRSx8UeloSqyA8if8q+wimNjV+xEsE3rBCWz2gJmhrpYjXoJp7AlpTZWcipB0nHpzukHo6MCBwfJLmStQzkrvCm5KQicMUeITfKbUlhMiR07NsqhLuEzCAZDtJGhBr944sQJ7epid6Sw2tEAAe3eD6iGYgXBJhgS31Y4vwlO+oh3IdWjImEJjBLD1a6FlZPp2uXy2mkeA/F2OHV7J4ebxE9Akm9eY0pmcMy4SdGb4+aFlyJ4YlyvSHgwA8IX0Z9bGwoywRG2J9o44i+xkYe2HjMbCIg9evQgClGcQYtEi7dpMlKZqBPKTb1Rx8v/lA84oELM4jkIiR02REiigKAJzGNQB6QcTyHXZFGaR9zvoa/cC2hJbdq0iQszApm2V6qdEuhA/CVtB7ra2DY2RjYiXzCRJOChGSI3IFCirNwXEkNpe5OJkf+RcqCgfIt7Tq45cMPcneKkqc9QF1rFVt3oQN8IBKmZaFrjJtABBMvNKvLXLoTt0UURXlaL4CHwh30GyBv7JzJWjm+jtOTS2apG5piFD+PgvX+77b0cKF7RLVN1Qj4gigfok2KZymTtY3D6xGiM9/w4o8CDIVSNF0Wk0VoK3I9S3RI6yF5ojBA6tGgeAn9ETg9R/Rxt1KhRCA5dtOJTnj1ewaQHVlMCHU7blYpEkKVPSUMn0JfwMUE6EuKRkNW1CIUpAhdc2Wf2HnLubT7goSf/3Wj4GEpOmpS0C373Wo7p44dI4+gE0QcghtKpEBcQjgn6w0RaLqRYotnkA36Cib4iKSKs9kGgD4To+RLEdFq8qKnx0tzz6X6ISTKGB+W1k294Cz766ht5uav8WQkETj/rz+7BXf3vkYCrr3/PWQeHnbr6GhxO8e/Zg6uvf89ZB4ed/heGu5uw77craQAAAABJRU5ErkJggg==;" vertex="1" parent="1">
          <mxGeometry x="164.32" y="560" width="185.68" height="30" as="geometry" />
        </mxCell>
        <mxCell id="9ebUhUrwIjOz1uz_46qt-33" value="" style="shape=image;verticalLabelPosition=bottom;labelBackgroundColor=default;verticalAlign=top;aspect=fixed;imageAspect=0;image=data:image/png,iVBORw0KGgoAAAANSUhEUgAAATEAAAAfCAIAAAAA1m3NAAAAA3NCSVQICAjb4U/gAAAQ/UlEQVR4Xu3cc5AlSRMA8Ns927Ztc8+2bdu2HWfbtm3btm3j+13UFx19VdX9emZn4nY23vtjYiYrM6sqK131ptfff/89QPvTlkBbAv2MBHr3MytpL6QtgbYE/pFA2ybbetCWQL8lgbZN9lvn0V5NWwI90ib/+OOP9sm1JdBDJdBSe3uSTT7++OMrrLDCmmuuefbZZ/fQ8+iOZevS/f7772XO3d23++2337pjI014/vnnnwXaX3/91YSkq3BeffXV8uydY4vDAQccMP/882+33Xbvvvtulkmv6Pz22WefH374YZBBBundu7eT9ll77bWnn356xN98882+++5raOCBBw5KcPjhh2eZdgfw3nvvXXTRRS+44AJmmeW/++670xXLM+qXwQYb7MADDwyYBx100Ndff23IZn/55RfiGGeccbJMAD///HP49gjfqf/6669TTjnlBhtsUMY/4ogjPv30Uwh83njjjbf55ptXcSvgt9xyy4033liFNswww5i0ajQLf/31188555y77rpruOGGG3bYYX/++eeFFlpoiy228Mtqq6127bXXFlR2vcsuu4CDDDjggH4fffTRi9Gvvvpq//33D8dKbkMOOaRTTmf88ccfL7zwQqcw6qijDjrooN99910gnHjiicvIt9122/PPP5+SR5Bxxx13xRVXbIlWIDz44IOnnXaaeR2rE7HBWWaZZY011rj66qvff//9o446ytBAAw3kOGyB155xxhn9vvPOO9uvrbEE8DnnnLNQnl133RXQUIAvu+yy9Ysh7amnnvq5556bZJJJUswHHnjg0ksvTeGDDz44+bDACSecMBq1Nsf39NNPjznmmDGhAyt/PvvsMzK1Q5u56aab3nvvPeZXILzxxhsE4VQuu+yyd955J6Lt1j9XXXXVaaaZpmaKjz/+mMbQTjvcbLPN3n777QKZhwMff/zxTzzxxGeffZal1fBxVBzYcccdh0+vXr3uv/9+zijC/+CDD0YeeeRZZ531jDPOYJw13IqhmWeemdJstNFG11xzzTPPPEOTMCHeRRZZxESnnnpqEyYB5/vvv992223ZFSqmUhBKH7bccsvFF198qaWWirgRDn0aeuihzbXTTjtFo46VeDkXa7OqdCXXXXfdpJNOevLJJ9PgYvSOO+4YYYQRzj///AJCVUYaaSQqeOaZZ3JA9913X9DUscYai636E8lZZ51FTdMVppMWkL322mvllVfmVQPEAe22224MjGWCsD2quOCCC9raxhtv/PLLLzPagGkvBAU+xxxzOHfBpuDJxpDY1A033ECeNbOHocUWWwyfe+65J4vJ37311lubbLIJHC7PsZqaFj3xxBN77703PyLURYQmhXzSSSelDAdIQU4I9gILLJAOgTj4U045JTvUrUASnHfeeVtOwf1YvEhYxnz44YcpQVl9W/JhtxNMMAFWAlGKTLfWXXfdsoKmOGXIRx99JP7IvSM05mEKx1ZPXh513tNOOy0L5z1TqqAWRx55ZDpECIceeqiAzJB++umnCOH000+/4oorUioQARwJj56OGhpiiCEK9ycXYNtltJAabL311mUgy0/9Qso8QC6++GL7LcwsACU7soOyHsqSSFIkj/hcfvnl4Cwz5c9xc9YpPIVYMLeCj8WkowUkBGHmE+GYCC1RRHBhb7/99ksZZupJzgCL+eabz8/0I0x3KOsoOPBMoivHIFiFj3CR8u9LiP3LujkOahdYvfLKK4IehaM9zZmLkOussw788847L6LiiaXQQoH8tiHD66+/np3MNNNMZfxjjz1WDiwrdjAN+cir+/Tpw99zCgJ1ShXWzHmlQ46VY4Ig57zooosiBP5iySWXTKkOPvhgLkO4m2666dJRSRM5i2NhSDh1smW0rC6JpQJUyi2F0NdtttlG9AslSYEgj5t88smJooCMOOKIfv/iiy8iJt9++y2ILUfwkIVmE9EIUwykA9wKuHQjGi3+tFRpGtNN09SQ3nNYES0dQ5UyrLTJ7Lmit+2w/5RXFeTFF1+ca665VllllZtvvlkGQqXCh/OrIuk0XAK2xBJLyDaD2okqVEoQiA61CX+FNKkxZgG2wJepKrdoHstvwiTgcGTiahmf/95+++0tVf7ZkI/z4w3laRJm4S5LNdFEExnK2o9ToMcKTps64YQTInIxn6JHQAkne+M1QmaYzqgsF/8fffRRQzhwUiJqGY1Nmm7uuecuAz/88MPJJpss5ZZC+FPpgJCYDqlEykyCTn755ZdlTOak4ASJ4CDy8CZdAJiaJjvuuGOIkzU2SbxMI2s1L730Ej7ZXaT7+geShs6xxx5bbRplCwFNihzlISl5BBEYxYe77767JWY9QsPcFZNbb73VviQ87Ec6wUfWc64ZDSLmJgMO41TYNCwgy2yV6OU/aSoDUI52KJ0O3eZQRFWtWVhg5+moSo9TCPCFF16YfLiJAu3NN9/U5omo2BgHz5fxaynDAiJcc0+iJb2nfGVMi5GeOYiIHFrDtJ/aWKqjT7XxySefLLOVicDkccpA5mSb4LPNNlsZzlDh12yqGFIlMl1/hpXoHlVRHX/88SbiLiMEO9V/UcljFQ3pL/DvKcPYJh1PkEKKCqJTdNVVV2WHssDHHnvMkejRZUc7BFTfNqkn8VQKhpwECcfWoVkiZPsljVBaay1Qa567bxiiZZ8aTlYoEW3Oyqb0Ki1GglRPld3yI488IjYGQhkmPtKWgo88XCsrYqsZA01DsmY6dR2DFAlTm0EViknJZw2H+iH5TsgI5Lp6JzJ2oS9L8tBDD0Wb0mVRP4cShnMpqCw1mFmWTwSUK4W63bkXmpAlDAVdWkzuueee/O+dd96ZUjW1ScdjbrcIKQuQ9dZbT4DODqVAaiRZalhGp+QRxH3MMsss0xItICjV7EJMa4hfhSbHHmqooaidWLHDDjvoHFZhNoTjo/c92mijpV6zngObsSMpTH3TuIoJ7XzhhRfCKOci8ZNnyiEDRMGWGpWbFTOyzCqe4MESbCeLI+XDQVDKjjYESvLLSbVUWTGSCoGamUtELdi67QhpiKRPRl3Ajz76aHlmk9n5lMKR8Q74TzHFFFlC65EvkINuKp3xU4mhUlt66aU1bPVNslSjjDJKttcVx8m11lrL3OXEpszOHFnuWaAyQ3qWHeooUNOPU9FpaEIoW5Bj6OhQu08++aQJSQ1OqAPddylQa9CaDMmiHao05qmnnmqCX8bRa3Eu9YlrDU8CKeux3hJuRYO+SGsLDuw2dLBee+21GrbhTlWnJ4ujZhFC5bTZ0eZAkV9mKGIXVbQLyYg8dHc47gCXFxTnpRTkVe3IkLpDhdxkaimA0OeipUCObLvMhL8jT3d1omL4qAV0NOsDktsBuU9xx1MwjG1S1V5VTGp5dygPkfi5ROKhqz6MtqV0lF4cngviSy65pCUyBJq34YYb8t98PzFVBfwmrAKO+zd8ttpqq+YkWUxJl0aX8uz2228vI0Q1WJYWcNNNN7WMww47rAqhBl4uJgMaO3HK/Dr/pR+eSkniZzqrLStlOkWoEbK1WVUxmTJpDhH3RDkLk39FVEyO4dFecDpA3QsfpHpCEvI7F5sN+wtkwmdplhYfYQ0ftpouOPTMrC0dqoEQPl8z++yzS8vLNdG/mofhFhtStktpcVX9N2tNP3yk4Cb3q/pkZ4n4UB3JgNWHO9Z0lgiimamvYwtuzw25wnJaLalqEDTNjVY9HqohLA/RD8HEYxR9mrIMZUShbGvJJ4QItwg1mKElmyIIy+J8GS6XW3311SURusq8XtotDF1lrUJNmpRhgKiRRFHuUlcpxZFsk3zKOcWsgoTEuDwq92FsHL0ORURlwVYboqVbRAkF9Qs4RUvWswFxafjhh6+asYB70QHZqwwiLT7hOQqhpeSKfMDy3UyKk0KYq4trHtOq/iXnsh2H2yRqnTVuD0TqvWZEpcFDFbKsOgqUGzDvltljuEkrmAcZVV2FN1yD23n1TFVroSET/UBHkl7lc5PZ6j9l6zYch/Q5SBlTVpZt8IiuUeMXlXIAQ87L06JsF5Tdknn5FVd5LiSeHPKqTjldLUhfFpPCbFVSpoDKdp7CNSCzlD2Wl7TSSivZKQuX7DRU4PXXXz+tekIXx9OLdL9CKIttyLwgl8q5u0o7oP/KXbkEq08zGVyU2mkSny6uDBEcpppqqqK1UI/ccpR3XG655WrQjjnmmKgTzRpth2XWUNUPhQSsbzjgH0rB9CmJQkL9U6X00cLcQnENNV0uwTC1+cBEjyBtihiSS5NPVr+NhujngURWRLwD2poOUF8Wk5rDlp1OTe+l3MqidMiFhyWxZMGnPBrSfmambZtSpRDFhUcmKZxJ45/eO+gYgWevoFImZYjAnvU7cT3pzj1tJLgLipoE9ZMVoxSFN02r2IbkZbT6uxDNhrR2p+7hqlceks7o1nGeeeapv9vwGJK4U85lbvV8wm2Ki4fIKlQ1TlEfu8zK80jJ3pVXXpmuFuSQQw4RuHQv0lEblN1kDY+CVvWfleh2x2WkDEFYIy9AodNR32zQAdKiT4cCRE4uGat/nwxTIrr88sunD/3CkOIwdViEoCGcnTc4EQjR6B577FHjeiJk5+KFQzbiBd/quUhEEm4m3YVmV1UDdJrZxCe2SXejnsxq4wZeUhQ9Oj6mQ7fb5XWIXZ6VqEVrFtdkKPtmgEX5uoBHz4QuYynX37JNzxQ1/Q25JZe6RNlIoPJANDu7jpnmc7gP8IaWc1HWZjFr+Ng1ubvA8IxBXeAD4lGRDnh47yIalHlq1lmtu7jsRBRFtoNbmYq/c0BSmFR97Vf3RZB3++LrBOn6He4YY4xBMtnpADkUKRkJFwj6lpq0uiZZKjeuBOXGKDy7de7UiUPPvrIwu2aB/WYfkc4wwwzSIt6kODXbZxWe7Ge5WaG7RMed9mC0XuTY6c1htGs1pO6Dt0HKyOjegaE6u/BtAXcb3iGGhFNFYIOh0UX97L1DNU7V/WTmxZ2ZmG8QGU8pbGaLeNJs+NEJ4G7dvXKcXgNaSiAU+kL61IQP83Aq4TlFge+RkN4PidNIN2wecxZfwtJOFAcM8eiaDbajdgr2E8i9jvC+3E9t4XQBshduCLlWAebIyUH2n2LW8JE8h8QmpQLBXNFVfjQrVXbf48jZbZYEkHIwEloSOmTaA/Kf7MLkYFg5QcpHUwnQ1VTEVjonMhcnkk6q2c4SkGvUicN0TmTzbjbb+5FWiNhmNEpu8Eneucgqs91B1ou/CtDdb3lq0/E+5557rsSBRenfgODJv4T3zOk6QXQTJMyqzWjUKTBI3fssVQHkwbl4i3fWlg0/NLogyE2U/U7KJygDIZC5Qj0AYVJOO5X4ZL57VTExWpYcqoAySsYmKzj0LVhF5PI03FYFXo5KZtuQb9YmG9JWoZGjgww5SRVOE3hX8QlziaLh/rDJ1D0dR8tEJBQSe/pGOrH+Kpv8f8jqBMeOkvDoPh2lKvD5Xf6+0+RZQm44+q5GFq0lsKv4mEhACBldy0n7DwQ2KQHpP/bSVbvowJcbumrKzvHRbk6/cdM5VoFKfqLWbfkF85ZTdBWfMJGgrXpvOWn/geA+XOJa/qcH/ce+muxCI0B65Xl6Brmqvu/X4CpJsb7h87omi1fH1zddmzCB01V8sKKg/mdHw3n7AzTdnU73Dnv09vlxhbE7juwX07s+IczYfReBPKnRYORgXNNF/yCni2Zos2lLoHsloEWkheFBpRcOOnzuWtP5epJNpqtvQ9oS6P8k0GPqyf5P9O0dtSWQlUDbJrNiaQPbEvjPJNC2yf9M9O2J2xLISuB/AWbEDPjf+mwAAAAASUVORK5CYII=;" vertex="1" parent="1">
          <mxGeometry x="49.16" y="610" width="295.16" height="30" as="geometry" />
        </mxCell>
        <mxCell id="9ebUhUrwIjOz1uz_46qt-34" value="decoherence error" style="text;html=1;strokeColor=none;fillColor=none;align=center;verticalAlign=middle;whiteSpace=wrap;rounded=0;" vertex="1" parent="1">
          <mxGeometry x="390" y="510" width="130" height="30" as="geometry" />
        </mxCell>
        <mxCell id="9ebUhUrwIjOz1uz_46qt-37" value="amplitude damping channel" style="text;html=1;strokeColor=none;fillColor=none;align=center;verticalAlign=middle;whiteSpace=wrap;rounded=0;" vertex="1" parent="1">
          <mxGeometry x="390" y="575" width="165" height="20" as="geometry" />
        </mxCell>
        <mxCell id="9ebUhUrwIjOz1uz_46qt-38" value="phase error model" style="text;html=1;strokeColor=none;fillColor=none;align=center;verticalAlign=middle;whiteSpace=wrap;rounded=0;" vertex="1" parent="1">
          <mxGeometry x="570" y="570" width="120" height="25" as="geometry" />
        </mxCell>
        <mxCell id="9ebUhUrwIjOz1uz_46qt-39" value="\(t \ll t\)" style="ellipse;whiteSpace=wrap;html=1;aspect=fixed;fillColor=#76608a;fontColor=#ffffff;strokeColor=#432D57;" vertex="1" parent="1">
          <mxGeometry x="350" y="550" width="50" height="50" as="geometry" />
        </mxCell>
        <mxCell id="9ebUhUrwIjOz1uz_46qt-40" value="" style="shape=image;verticalLabelPosition=bottom;labelBackgroundColor=default;verticalAlign=top;aspect=fixed;imageAspect=0;image=data:image/png,iVBORw0KGgoAAAANSUhEUgAAAK4AAABCCAIAAABB6HpAAAAAA3NCSVQICAjb4U/gAAANuklEQVR4Xu2dZawUSxOGcXcI7i7Bggf3i7tbCE6A4K7B3YO7O0GDS3APFtzd3eV7cpuvmTO+y+yy5545P8hsd7VVV5e81TOE/vnzZyj3z+VAqFBhXCa4HBAccEXBlYRfHHBFwRUFVxRcGQjKAVcruBLhagVvZWD79u0fP370trW/223evPnLly92RnW1gh0u/aYZPXr03LlzI0SI4Fmzv0d948aNypUr25FdVxQ82KVp06bt2LFj0aJFYcOG9aDZXyVt3759njx5qlataqkbQrsQk82dWrp06aBBg44fPx4jRgybTQKEjC2uXr16/PjxZ8yYYTYl6Nw/Sw5cvnw5Tpw4p06dMqJEA7948cKo1vFyhvOoz1evXiVLlmzJkiUmrUKZ1LlVggOo1ty5cw8cOFCXIT9+/NizZ0/27NmHDRumS+B4IXLAETc73/+vGzBggBwd0xYtWrSrV68azccVBSPO/C7v27dvunTpPn36pCJFRLDBdevW7d27N8wfMmSIdV9OUEyePLlTp05e9PTPv39GDV1RMOLMr/K7d+9GihRp8eLFJnTXrl3zmyggf8jl/fv3TeZjVHX06FHmuWHDBl0CN4KwULTYhdixY9euXduCzl/VCxcuLFmyZOLEib0YMG/evBUrVuzcufP37991musKiFsoOHDp0iXiRkvN7zet8O3bt0yZMgEVKDcIl/bEiROfP3+2s2tQIgSrVq3SErtaQed4yKKpU6eGDx++VatWZkR+rFuxYgUnO1WqVGLMJ0+eFClSJEOGDHi1WbJkuXPnjpzLkSNHNm3apJ1arly5SpQoAVCmrXJFQcuTXyX4ibgIDRs2jBcvniGRHys4xyNHjuzVq5cYk9i1UKFCiRIlAv2cMmUKJqNNmzZyOmvWrKlQoYLu7MAYjh07JvyGIARaReGWCA4QhcOp3bt3WzLEPwZi3bp1uCxyMi1btly7dq38SUxbqlSpffv2UXL69OkFCxYYTfvevXuhQ4fu2LGjisCNIIw49rNSpUrEDtoYUtvAP6IAfnzmzBkxOnFE27ZtVTMhrBBBJtts7jrQFVoE51HZg2sgdJVoKHgNcFSwYMGIESPqU/i3dNu2bQkTJgTIEsPiweDHqKbA7r5///7x48cAUOYJs2rVqj148AAzoewhnIMrYh7MD5ebiWbLlo0YTEz91q1b2LOvX78OHz58/fr1/GS62LnSpUvPmjWLciAwIpw0adKIyZAFZhvSpk1L1LRx40acoyRJkrRu3drBqVp2dfDgwXfv3uFhWVI6SEDAkjFjRt0Ohw4dquvrqYjBE+fNm9egQQPdTmRhuXLlgMUQhfz58/+m1Ko770oePXqUM2dOHFeas7UIxOzZs0VX3bt3Rxdlzpy5Tp06guDs2bNA+j179nz27Bk0Y8eOxZcRxGg2yvGJwoQJA8wnlFiOHDm2bNni3cS8ayUARDFbyx7+3ECghDp06IAJP3/+vHY4PACOjbZcW4JT2aRJE225qgSrxwY1atRIWW6mFT58+CB4YSJi4cKFI55hDe3ateOg58uXD2L0AV4M5aJh1qxZOfrwiz0WBGRHOHMtWrSIGzcuNDgyUg8TEYHmnjt3LmrUqEDoCAQEKVKk2LVrF7JsMhNnq8g8odsIvex0C0MhE//aoVfRIP19+vRhLHoYN27cnDlzVASoBAjs9Ay7ypYta0kJt1G6ZFmDUJpIEOZk4sSJ2BUakNcaP348QQt/YOCkXoi2OdlUsa/ocB6E+0qHRDJJkyZV9rx//350l/RlWBvKXxIgHxMmTFDSkw5WouXYDjSHyVQdryJIg1mW3XKIOS1oL5ZfrFixvXv3IkNIuWVDXQIwA2z8w4cPlbWocc6YLr22sHnz5phpbbm2BDXMAX79+rWsso4ghHuii7hh20je09fOnTvhhewXDUE4TvmFCxfESIMHDy5TpowclbBH5vFwHVBWKAP+0EOCpnjx4iNGjBDPuM0QoCe06/FRiZBsOzoZCcaEc5Q5J/yLvOIPsSLvJrZy5UrYiG1SNq9SpcrWrVttdkjUY5OyX79+jIVPJumtRUHA74cOHdIdo3z58pRfv34ddfr27Vueb9++jbZAnbB5AOaiFXuPJhDP6IYoUaLgl4mfUHKeeMYxxI7wgCUjipPJ9Vq1amFZdEf3USFzg02oPR/1b9QtuHLq1KnhntQr8BAk0YheVc7JrF+/vk3i5cuXs8YxY8ZIeutgErWP2WZCtNT+oUUpZAH9+/fHPSRSWLZsGc4LehKojl0UTTjZKHzxjKpAFAhtxU+sAxuP1sGpxPOgECAMm3fx4kV6AEFDbXLUtEP7rgTLKBbluyF0e0b5AQzgMhMFCAJ0p3BgdelVhUReRL92KKEhKONfof9+NTEXIvYDOqVuhx74U7ZavXq1fMZACMVACaEBMq6sks94lG/evFGOyyFQQiI4CkI5P336VAWDmM/WqVoUFas2v/Pj1FiqfmAFWoEsA9y7cuUKMTnssjkW5p/QzCYxh5M1AllKegutgEqgAQr8l+D8C8RiC+TPGjVqyGf8BnxD8ZPQQHkXVHkfEG8levToshUPaB0lJIIBEyMC/osIQknsh2ccN0aRa/HDiHIIWAGMePPmTWBmvCUsI+yyOQHOIcGaTWKxBbj8kt4smIQIl5h/USNEOMS++AGgBSBfNsfzgqxHjx4ILBYEIB2gwk4PxKJCZC2JEThk11K8cMLpijlYdugLApxuXFEMLp3PnDnT/hBoaPvEHouCcBQIVZFNdPjz58/x7AB87A/pKSXWhz+PWoFdEtTZaYI+4+5G5MiRzYnxWyH4W6KQIEECwB+OHMdPqVnN50ytR1exhc5TagWzCAKPlAFUjkK9evVsWqPgS0YkzMJN7jf7emlwvmjRoqhhnw6Ek54+fXpbvoKwDkpHgbgfaEiKJ8bMUlSDI4GwIPaNtONr5DYKzFf6ZI4PQYeoHDS97NnMVxCigHhKanRms2bNxE+AZHlFjh55cwi3hd4xH4ANvpi6UZ/INSGJUa2ynHOAX2ZJGTNmTGhYjiVl8CUgMGHXlLbSTBRwFJQAgGrZIAHSqJNXRGIEGAX2yeU7fB+/sYmbW8LJshwRt5EIyFIaYsWKRVfEdZYdBl8C8RalLVEgqCWmIr7XVVN4NAS+ODjwgqwGkY9MnwPIgxoRsJqnzB1kImgrfw526JFWAHoBVWOxONQ4UlxDdXAmqq6IrcD4u3bt+udDYOvpJIgHreuYoD3EeCDVSgIsAiAG/i12FExQVIEoFy5cWJJBg5kA+dLtOVgU4r3DJplkN5kzQkBGkRAGGtL0pP+5iWpC710VyTxed2zatCn6DAjfu05UrUiUsEZyjbJcx0B069YN6BtDgsN4+PBhUsbCgWKPCbiRErrAYwAPFrJJIKdEY/C5yIEK7PbPhfev9GBTK4BnkGfnIoV4bQ0dOWnSJNxqBCJ58uQOzhxPKGXKlI0bN+ZlN6e6FTCa8n0KHVGwc1tGOSHkQwXa8BPg2alJ+78fcYsiCD6vNwkyBQi9EvYnsQJ0A2It7yXrtfO4zOjusscdKRrgz/FLZCJEsQXwbGcwkkkylICeZxyuALkSaGf+WhqQfwpF/kVbK0vEfUPVMeCiBh86MWkVIFVg28xEvlLBswOiwHU8ElFyheLZ6I5egDDCfBpoBXhEBtWEDInHW9LmKcibcJkFn9qkbSBUCa0g7806IwpYR9GvWCF6Fe9GXFwLhDV7NwdUPYsy+W4NqAP7rRUFAi6kxCbO4d3cHGmFVkCdgzbK3hzQCtxhxK3lNTzR6fTp07nMo8o9OjJ7f3aCKOAgC+hdd1wBQGnzFCJroFSTus3/biFLI9tHGlOZ43BAFFgVoQ6WFZyHvCI3mwPnJUOvOS6u6phkuYzSmyJeN6r1ej7ONiS9QiJKdbVfJ4LwYlRxO9mLhgHbBLSA7eSaNSCK7iRFwKn1CYRpELW6DQOhEMiVaajuRjujFQJhec7OAQPHPWNeyNFuthgIL4EoSZunQBQoD3D7iIhzelW331xRMBQhvqzDNUOQPiMKbtaAMKpqEQVkyKN7Bkb9+6ic3PeBAwe4t6HKDLiiYMhw7juxo6RXjChq1qwJ4KiMMnAUAKHtvJRi1KcfyrEOzBOcVD2WI4D2f7UTcq1ARkYXTfG8qOWLnnL54Iy8S/Py5UtfMIQYFcCjQIECf9g5EswNde2izG4x/eGQ/4Hm4l1jFIPRWsjKAk0CL4K+8+IK4ZnN1yyNOtQt52UbXiMgtYE3yq01gBxk1Lu8F5fIsQujRo3SDuR+zVWtJlW/yclxyskOG11qQgjISJHo48VODLAWabAYwL/VvHtJ6oRrRzrz1EqHW6LkAOgyQqD7Hatgxyi8YJQKGKDuzF2tYH0qycij9kncBzhwZLkSXl/jo43gZuItNDW9roC4hUoOEBSQZJo/f36wZguizJ0lvB+jVbhuoxFngpTjDeC9cx/HFnXgEXHZDq/T/CvUroFQq0mj3+KLNdxRCGT4yGjy5IZOnjzJLUMTG+dCTEbcU5fziQjA5i5duqgrAv43/5MFmClfwTKRAxbhioLdnUQZEMpziSF4vQiEGuN7IBg47dUK1cpdUbArCtCRZ+LbQjwEo1ck8BZBwPg6luU6XV/BkkUhhcDVCiFlpy3X6YqCJYtCCoErCiFlpy3X6YqCJYtCCoErCiFlpy3X+T8+cLc0IfOOZQAAAABJRU5ErkJggg==;" vertex="1" parent="1">
          <mxGeometry x="400" y="595" width="131.82" height="50" as="geometry" />
        </mxCell>
        <mxCell id="9ebUhUrwIjOz1uz_46qt-41" value="" style="shape=image;verticalLabelPosition=bottom;labelBackgroundColor=default;verticalAlign=top;aspect=fixed;imageAspect=0;image=data:image/png,iVBORw0KGgoAAAANSUhEUgAAANEAAABDCAIAAACN9nfwAAAAA3NCSVQICAjb4U/gAAAPC0lEQVR4Xu2dd5AVRRPAD4mSgyIgApKRQizJEiSDgIBQIJIUhCJYZEQJgiU5FkiQqGTJIEEJKkkyRU6Sc5BgIEu474fjt6y7s7PL3dv33nFzf1zdzvTO9PT2dJ65OJGRkRH6R1MgiBR4Johz6ak0BR5RQPOc5oNgU0DzXLAprufTPKd5INgU0DwXbIrr+TTPaR4INgU0z3mi+N9///3DDz94Ao2VQLdu3VqxYoXHpWuecyfU/fv369ate/z4cXfQ2AqRMGHCSZMm9erVywsB4uiYsJpMDx8+bNiwYa5cuTwSVD3aU9yLKnjrrbdKlSrlSijNcy5s0LJly99//3327NkucLo7IuLatWuFChXq3bt3/fr1VfRAzukfJwrMmDEjW7Zsf/75pxPAlStX2N9OvaFtZ6vs3buX38FEY+vWralSpfr1118Vk2p7znFDnjx5snXr1hMnTkyePLkd6Pbt29OmTUPnbt++3d4b2pbr1683bty4f//+R44c4XfTpk3/+uuv4KCEnINoderUYSs6zqjgx1jeVbJkSb6cnQg7duyoUaPGhx9+iJ0HWX/55Rc7TGhbypQp88UXXxg4wHYVKlTAMA0OVnD8c889N3DgQKfpIpw6Ynn7vHnz4saNi6hT0AERGIY8N3/+fDC/dOmSgfkff/yRKFGiBQsWKNYS2K5BgwYlTZr03Llz0mG1bpVogAcPHnTv3v2dd97JnDmzpDu8m7777ruXX345bdq0BpopUqTImjXr4sWLg4b4Rx99lDhx4h49ekhn1DwnIcvkyZOxgtu3by/pC/umlStXJkuWzILmCy+8EMyYNgz3ySefTJ8+HVFnJ5jmOTtNIr788ssCBQoUL15c0hfeTXg2Fy9eRK9Z0IQL0bZkC4KGPjEmAsVQ0j6j5jkrTfD29+zZ06FDB2tHTHgW/mmSJEksyGLh0ULQJ2iLQNRVrlx5/Pjxd+/etUyqec76FfAM2KC1atWydsSEZ+QcaIK/BVksVFqCKeeYDoMY92X58uWa51S8w7fBY33jjTeeffZZFVy49glLTnCYGUfiFzzada6v66hatWr8+PFnzZqleU5FZxQrgfuyZcuqgMK4DxcV7OzqTOhcaXDbv9WADJHCJUuWWPZAvOhPeezYsZkzZ7KHMmTIQAlGlSpVyH4wLMGtr7/++t69e8QkFy1axCNmbIkSJYhPTpgwgXai5B07diS5JHAYO3Ys3iIVHHSRtDl8+DAK7s0334w+ht5HEIog5vJcvHjxMmbMePnyZcuS4bksWbIEX3iT9ceP3r9//6uvvvoYJWnUznvjunXrcPFYJK9QzRInTpyjR4+K17t06QKDv/LKK+++++7mzZtpxDZPnTr1p59+SpqSx6FDh8JVAnj37t1TpkwhbgnAnDlzaLx69WrKlCnNsU3vWEUZEq3K5oHpvYwQnjFhsiNERiz4kxho0aKFl0UFFubHH3+E1WAM87ASOXf+/PmDBw+qZUOaNGlee+21mzdvkh2CdVgS8Ii39OnTG3IrX758fDxYECYrUqQIAFiUN27caN68Oa/zePbsWcPapTqtdu3aDFW4cGGydfTCfCCKsqtWrZoamUD1kh2C9ckYIi28jAl6gInfXuCDAwNvERjjC+bJk0fMeOjQITY5CiQ4CJhnyZs3L4/btm0j52u0S4h74cIFSD916lR+ly5dGlH0zDOP3Fs+CbbOvn37iHQjvXbu3EmYETmEqSiGW716tVkrseHWr1+fIEEC5JwA4JEkJjFx8bhx48b33ntP/F2zZk3+WLNmTaVKlUQLHIlvj742cPX7D7YHuyh79uzqibCWDhw4wOZZunQpkJQ5waMkl9iE6heD04v10qpVq549e6IuUDtM+vnnnzdr1iwkBkO6dOmQHfCcee0SnkNX8oM2hOf69OljD40iKlGCjAIAm8mQVfAcsXuEGR47Ag+AtWvXoq1gOzElAOXKlRN/nzp1ioqMuXPnnjlzBjGJqcG33LRpE8afACBviGnyHzvA54/GcpiBxJF6HrgNs49FYWuyJ5FzGzZsAPkw4TmQHz169KhRo6hCyJQp0+nTp4sWLdquXTv1ovzrRdTBS9DncQTHSX9jExBalBaHsQyizLyIi4DSFCPgnoA3n40FG6nx8uXL9+3bVwAwK3FCPo94HDFihPhgDCXsJxiUEURiGAmXI0eO77//3gk9P9pBFQS+/fZbPwaPtWPyfaEq8sWggETOAYE1gNKsWLEi8RX7DmCLv/TSS7SjPRcuXAj3IMOJDGGHwSW0G6nxXbt2UdMiRsB5geewlsQjzIpqRo6ieYX9hGJFvpItyZ07Nwc62KkgYJ/dvxYMWQY3VL9/E8WqkV988UXW+9tvvz1etXT/jRkzBoh+/foZvVhXFM2KR95HJhldcKfh6JHsMw9orrDFHMRjN/eipBB+RguxHCEUg+yrGggQN2fVThU4UkLpRlcKDB8+HKoSTTMg5bkvoebQfQZvjhs3zvCDnn/+eY5aGF2UzRiOHhr5MTtHRJiDkEIWmnvR3YapJ4w5MaO5DscM7/ffOE9MEeRgvd+LCvn4IjWClW9gItet8BwsgmbEQcOVI65GUBf3x6cFIB3btGkD4xKiw+QUwXTXuRC9Ym+4QsLZBGKE960AZqX0YgAoYHTXk1LAE88RzoEJcHawbJCHJIa3bNnCo+s3e1JsDHg8ahzYJ30dFUzgxstbWKUE+Vyj8Hfu3IHvPQbnvMyrYaCA0Bsuck4Ij+rVqxuhMsIHIqAcVkQUMZ0AokSIRwu5ANJTDGWXcxJ7Dv8RaLMxR1WCwX+4C2QLAo5ZOAyIIBdB1HBARooDkljaHs6NQm+Yyw4k9hxyju1esGBBYyVmj4G8ihHvAIAA3ldffUXs3shGBG396H2PR+hYtr2M0Y4ndqS0ltoOGZIWzGvSNlg+IZldPSln953MfVHSZzZsrDxHNQfuG6Uf0sgcVjYJHzIEYMCeo+adHCup7q5du6px8qMXTMjweBkZH+Lnn392ZTtKCihKgEaulp+XSQMOQyyTYCc2T8BH9nVAUSiq4jm7YjUjRCKP6hTRQoaRaDB/Cxb0FW/p4G//8yPtilqj8JcxJLzwHCU60Ip8DsBkmUTVQtTm9fIWUXrSwZb1Ivmwszt37uxlhFDBuPAcipIjTyCHl2pGEZFGzgqhgmAnUBcq7P2eFznHFPCca4Cwbdu2OGJUAcJzVL6QeMXvNuKXfuBJfB5lIsxNSiVgQZKYZPGLFSsWI3jOHLj9V7eiNN9//33SBhAR72Hw4MEjR44UtMNpEIErNBSnw73IAD+IHoQxDTmnnotQJYlmSgZF0priK0jXoEEDUoo+hZMo9OLyAIKXAjFRgEkV2apVq9SohkOviLSb64P+5TlsHc4BhAOKIcRB6Mf/ZAZl2LAbSQSb9x6FWBSoEsVE6sjeiG7bgAEDPv74Y4Ohg++uRWcB4t4+kXUV40hiJdGZIEa/mz9/fvAn9aJYBSKfC0osVX3UXPHKsmXLFC9GuQtXmkgCcjTKI4T2xRMnToCAuUJM89zjLyLCQ9S/KD4SChSr15KTReYRXYIXFS9GuQs7h6pEaRghymM+6YvUZ3BSFZe5Xr16WJPm17EsuXZOMSByDvuYVJMBo3nuMbmocIQ6ap6jUpoX7HUA8ISa9IqvoujCaiQkZC7sVgD71MUeg9W44Qv2AhlqIs2qgAJeRX6c2BPVlkKBBIbn8Dko9yU5CzZU3MfEKLnlOxHuVvOcOChqT5FxUN6PU/LDhg3jY9vPSPvEXtJh8Zfx6DFzOafHGink5siFgMSzef3118UlAdJ3qeHlKKClgjpaco64Ce56t27d0NZEhjkDJp04BjWiXvEKKZd3wtnJMyUK5dTlNJRoRxLwLaUwhGMgr/GBpTB+NyKl+EGxcqyBuWAvjodS/CFOaXHro3HYRYoJoXjaLUcxrHkI6ZtOjThrTl0xtF2k9X766acPPvhAugShR9i75l7CSch4hYqRDkUjKoJ0FjyHoW232CiZJtrsmj5xGtxo58QXB03UYET+KJht1KiRBYwEI7LW0kj+iYJwhD3l4gohx1vwHELaekjZtc4zVgFQugwpMZadVs1ZNUjJzWpmAOwKGjle5PSWtJ0A+2effcb3411O2VlgUOKIE0Sd9F3RiL+MdaUA8KkLl4JDPSRYxTllp1mEs0Ue1QIQLd2q3joxsRehQqUdeS0RBrcvgXNo7Gzkk7lLlBqYK3HsL9pbuIuYGDuBN7h8yJAhFgBuNeD28SjITvtEAW9BKCLaYTh1xo8MDXvYftuQ5jnrF8FAQVHabxMScDAlGWcqIcyviRCUUe5lHVH5zGdDj1OJbU4qgAA8F8IDgkqUH3VSLWtk3p2AOQrIdpLc2+8kGGNtOxqBoDkxWCcKkOjERjFfNczNBHwAJ3jXdpL3+B+wrAHJmbdOnTqpX8T5gF/JfKjBfOolF4JRqxgcQcgZ5yZNmthh9B3WdppEcgUzVTMcPZT0/dP0zTffcFacQABalXNNHDu3HHhzetGpneMaSAsGBACmz5kzp2J2jHqOdVKHgebllBN2JF4C1wk4DR7wdsSw9EZ580Rc9sCKUK/22TXP2WkSSRSKb8mxIEnf/5vgCepKsMPQiYgcBaSXLuFXUisAMFFWYnJe3goVDAVU/LMb9ezsQ/6jgRRG85yULJFknFCgBOrk3T60cs8I4RKCYdwFo/4fAT5M/mRD4veor1iAKbEWsPmk42qek5LlkYLjOgFqVOXdPrRSIoUywi+W2kA+TBj1ITn9pAjiEEnhkgYii04TaJ5zokwkmxVRh4vqCBHQDhQ0ZhziQf3PsgI6Z1QGI/yBKal4E4+by0MUTKl5TkG9SG7Owy6JvrmmmsPUR5E2mSWPwKEC4y5Kxb/UwRrBmyYLqkBP/y9Np+jSo3a4jVtUSBc6HWpSvRz7+oiekOYi6KM+G6V5zoU1uC2Aexqp1LXH013ejH3dXPtFkobL4NRLj1aOXz3009HL4REMO0KgFFY8aXbr6aCAx1WgCojbEbl0hde5L1cSRVDLSRCOu2zdQWMrBBFNiqXFJeauNNC61ZVEGiDAFNByLsAE1cO5UkDznCuJNECAKaB5LsAE1cO5UkDznCuJNECAKaB5LsAE1cO5UuB/MuV6NBDx0GIAAAAASUVORK5CYII=;" vertex="1" parent="1">
          <mxGeometry x="400" y="640" width="155.97" height="50" as="geometry" />
        </mxCell>
        <mxCell id="9ebUhUrwIjOz1uz_46qt-42" value="" style="shape=image;verticalLabelPosition=bottom;labelBackgroundColor=default;verticalAlign=top;aspect=fixed;imageAspect=0;image=data:image/png,iVBORw0KGgoAAAANSUhEUgAAAIYAAAAiCAIAAAAVljY+AAAAA3NCSVQICAjb4U/gAAAGUklEQVRoQ+2aWUhVWxiAr6aZlWWlD02CZQVS5INBEw3UQ5SoUWgDJUITFaTYAIoPKlkZEQ3QCCqKGiUOjdRDQROYYNqglaYYmpVFA81W97t3Xza7vdfZwzlHPTf2fhD3v/5p/f9a/7SP169fv/6yH0+ygLcnKWPr8o8FbJd43DmwXeJml/z8+bOtrc0Vpj6uENu0Wgvk5eV9+fJl48aNLL1+/bqlpUWLI0EGDx4cFhamXfWy07vWKPqQJ0+ecBUmTJggRJs7d255eTnmZjUuLu7t27dRUVG8vnjxYseOHWvXrp01a1ZXV9f169evXLnS2toqYIJL7MeSBTB6Tk6OkOTu3buJiYnSEs5YunQpzpNeT506hfXxgUyIw4RM7FwiOKY6IILSrVu35syZI8Q5duzYunXrpKXS0tLt27d7eXlJr1evXh07duzo0aNlwpCQECGT/0Eu4SgRChYvXizcQI8B29vbz549S2749u1bVVXVy5cvFy1apJT+8ePHurq6qVOnSkAClDJVXLt2jeulxN+yZYtYeeHd8QQg55FrfubMGY6kj49Pr6v048ePxsbG9evXz58/n3/wkEqlkydPHj58WKjn8+fPsX5hYaFwVQX03FtSUVFx48YNTtaQIUPEp6lnod7e3kSehw8fxsTE8I9WeEFBAbdZCwfCFeGvKtxx2x49elRWVoazMzIyZELPzSVkv4MHDxKvBgwYINxnzwO5uIQsYSIhsYeGhgYGBgq1IpGMHz9+5MiRytXPnz8TBgYOHPj06VMl3HNdItxb7wJv377t5+cXERGBGl+/flUqQ2InpjlSj1uidSSVMdlo2LBhKiqxSzo7O48fP75v376GhgYlASXdq1evHAn+k+Bv3rw5d+7cnj17KJzYtbQ1aq3p06f36dOH/nz37t3yflWJXWUHss7jx49VuV3HVgKX3Lx5k1uGz7du3Tp58mQCukx/+vRpMpsOuz9gCQccOnQoNjaWkLJ582bMvWnTJmlfkyZNIqM0NTXt378/OTlZ3mxxcfHy5cu1e6+trcWjKSkpLOEVMs379++1aCqIOr2TvpYtW7Zz584FCxZ8+vSJBodCm0DZt29fCoPq6ur4+HgdpvPmzRN3pBoaRg7KXWnWew2wYcMGDiXd9dChQ1Fi9erVubm5kjbR0dEjRoyge8/OzsYgsookdooRrcb9+/cfNWrUtm3baFDI4aQiJZUWX4KoXULTT+CTK4rMzMwPHz5Qjy9ZsqSysnLhwoWOGEnwy5cvMy3Qx5FWCcpm0HoYp6io6MSJE+xC8gfSz58/L7cavEZGRqpUqqmpGTNmjDCxjxs3zlD/d+/ecXU47nJT+duM6/v37/n5+WvWrFEywrdJSUlHjx7lFlN3G8pwO8KqVatKSkrQTZ8zEWbFihVUlvpoRJ4DBw4I530QYtyOjg5GhxysZ8+ekVODgoKIPDRGjthyqxISEqZNm+YIwREchdGEzIQzEMcVnDhxIsi/SfL19VX5A4x+/fpB9uDBA/KKI+6eAKdW3rt3r6HncAnVqlBhOvPm5mbKbnaKD7AR6USIKQNJPJSwTvgDDiicmpqq5e/Q+UpUf39/Dk56erqWXgXJysqiVjFEA4EeWDWQMEOlj0NVoo+gv8osHYQZM2Y4mvJqyXHwxYsXtXBXIKZcwkVB3UGDBhlKYrDDBNQQDQTz2zbDzS040hxQu01K3oCAAC1cEkoIcYt0mYkplxDp6KXNCJ49e7YZNEs41CpyZ2CJ0CpycHAwbcf9+/eVhPX19bt27WJ+ZZWb0/imXEKz0x221lf63r17fOQhwV66dAmXkEJpC0gD1H76hK6sHjlyZOXKldScpAeKXQZQ5FdqMDPFqytylbTGXxU5pCQ6akF3iTTJh+kpNQ9ploKEhzIRTQihUllikokTaORCimCkh4eHT5kyRa6GnWDlHInxLblz546jjy3OiTRJNfzfxySyG9HwAc2yGxlaZSUYqKhYcGRmzpxpla+N77QFjF3CaIE6ymkBNqFVCxi7hGJf+cXYqgAb36oFjNO7VY42vosWML4lLgqwya1awHaJVYt1O77tkm43sVUBtkusWqzb8f9rFWlWL1y4wPSCcVZaWlp3iOVLJ1/DDDnTljJrMkRzHYHfxvF1nS3zwwYzQ27XJZrk8DfPBlIzsYFU6gAAAABJRU5ErkJggg==;" vertex="1" parent="1">
          <mxGeometry x="400.88" y="690" width="118.24" height="30" as="geometry" />
        </mxCell>
        <mxCell id="9ebUhUrwIjOz1uz_46qt-43" value="" style="shape=image;verticalLabelPosition=bottom;labelBackgroundColor=default;verticalAlign=top;aspect=fixed;imageAspect=0;image=data:image/png,iVBORw0KGgoAAAANSUhEUgAAAMkAAABBCAIAAAD0RxfnAAAAA3NCSVQICAjb4U/gAAAPsElEQVR4Xu2ddbBX1RbHBURAaTAo6VaURgRhgJGQki4BFQmpwSGkhlA6pEMYGqRBgUFJEVBCQMBAUOAp4dApIcr7+NZ728PZ55x77v3FPfD2/YP5/Xauvc7aK75rnR8J7t69+5D5MxyIAAcSRmBNs6ThwN8cMLJl5CBSHDCyFSnOmnWNbBkZiBQHjGxFirNmXSNb97EMTJkyZf/+/dE8wN69eydPnuxzRyNbPhkVuGGjR4/etGnTM888E03KnnvuufXr1/ft29fPpgkMvuWHTUEb8+GHHy5YsOCzzz5LkiRJlGm7detWxYoVX3nllZ49e8awNbJl/u4vDqxYsSJLlixnzpyJL7JPnz6dKVOm1atXexNg9FYMdy9o3SdPnnz++eeXLVv20ksvOdL2zTffbNiwoWvXro69PhvXrVv3+eefoxSTJUv25ptvpkuXzjaRAU2bNsX9Qspd1/QWPdMbKA789ddf2KO2bdvqVH3xxRdTp059/fXXH3vssUqVKukD/Ld07Njxtddeu3nzJlN27txZsGDB77//Xp/+xhtvlC1bFpL0Lml5yK3DtAeQAxMnTkyfPv3Fixd12rBQuF83btzInDlzKLKFwUU6f//9d7XF8OHDCxcu/Oeff9o2/eWXXx555JG5c+fqxBjZcuNJQNuvXr36xBNP9O/f35u+EGWrQoUKr776qnWLw4cPY/W+/PJLfd+33347Q4YMEKZ30WIwCFdvIWgdgA6XLl3CIEaOsOvXr2/bti1jxozWLRBWvq5Zs0bft1evXhcuXPjggw/0LlqMbDmyJXCNSNXIkSObNGny5JNPRo64r7/++vbt28mTJ7dugTv/6KOPInP6vkSLrVu3njBhAs6Z3mtkS+dJEFvmz5+P6encuXNEicOTY32bbNGSOHFi9JPj1u3btwcNmTNnjt4bDdkaOnRojhw5YobadOpMy/84MH36dEAH0IeIsgTxZX20lG2XRIkSXb582XHrvHnz5suXj+yT3hsN2Xr33XeJVIsUKaJvb1r8cGDPnj2gVrjYfgaHMiZhQmd5IGx062I7CNu3b5+4/NbdndcKhT597r/+8+eG9enjTYuNA+ACtBDBRZozqVKlYos7d+5YN/rjjz9wp6TLkQAR+kWLFtl6wyNbBJxoJlkaIMS2BwhvgQIFcEIZo4bZxri1yzDbaa1zPbocGRG1xkOHDrVo0SKBvz+QBQ/CAK6AtZ599lmPMWHpEvxdLKNa8MqVK3yGALctihUrRiy5du1a24CH3Sb4b//tt9+GDRv23XffYft2796NJ0h+vl27diB4sgiyVbRoUSLV1KlTk44oU6YMvWp9/Mc+ffrgkIH7EZLwL19V744dO1auXEligavDARo2bChd58+fZ1MW5O/bb78dNGhQmjRp/NMchZH4l61atZo9e3aIe507d47USr169ZDSEJeKcXqhQoVwrXig1pEiW+XLl3ebDmH0Ll26lHv+8MMWiXJEvWLVOGDAABw9YDQ8TYHRyD8QnapFsmXLVrp06WvXrtFCHgr4RHVBN84gwictiCBxh+ol5Z47d25BhBcuXNisWTPpImahHZmTr/369XNE9mJ1ivAORtzBssOyJs+Mh4qz7HO1ELHT6tWr471Y99q4cSME7Nq1y4OAIUOGMAavyzrGVW+tWrWK84jM4sehHsSbw3ghSWL4sHTksF5++eWUKVN+9dVXaCMJX5F9UqoMw0jjaR0/fhytTiaB7VFviJq6AVQCZc2atVy5ctJy9uxZ6/1Ahx09erROnTo1atRgl5o1a8owIDu2QEZZFk3JsJIlS6o1g/Bh8ODB4YqL8eI5kc9IiKcDN4BA48wEjAaPg6fGc5FFuNVVq1YtXry4x5rkHOkFHrsnkvUQRrrIfTJn0qRJ1mEcABFBCLBu0o5dQ/LwMOTr2LFjlXKaNWsWMaqajnx0795dfcXYjRkzRr7+9NNPaFfEy7oXCX98WOQS8f3hhx+kK0+ePO+888727dtRD2B91vFB+HzkyBF4rSfg4kYb94pHgGX0ng5qX79+/VKlSnGf4RUp7QYNGuBfe89y7J05cyZ2hopWNAtP58UXX8RKOo5UjT///DNEgqNah8WQqy5RogRzUEL60jgBjRs3lvaPP/4YV12NgTJurXxt2bJlmzZt5DMiSNkGmhMxQlAQC4QJD0x6UYEoQj6jMvkXjwr9hAnnM3cR723atGkyErW/ZMkStR0fZJi1JR4/U5SCmxUuAtAfKVKkCNdqPtc5deoU3CYTQJWpn0uCugEVs7kBXrKF2GJ6UBKOBHGTlAbq0qULiopglZEgyFgopEFmYQHV7cGE4SfR3qFDB/Q2Hxj50Ucf8YGbgTuPsLLp+++/TwvSw+WDaD7jeFWuXFndHuBp/mR9BqBWZRFpid9/qQ7AgxRWhE4JdwaDgKEJfalIr4DVBr6X5yV7ufpbqCtSSMis1QFiJoYP7UIvQvD000+LDcYZp+IHMUcV0bJlyxaptUUm0qZNqwJGnEQU7Hvvvde8eXMBfxFE3EBuCeOZhbCihHHnWQSn8tixYzNmzIAGsgokrVQqDaCfAALPAJOKiCN2hMFCSbz/S0UK9vqecCkEmrhO8Dx79uwhrBGlqYAU3CgiNrTsf7f0EOcePXowiLpsNebTTz9dvny5fOXMEhUStXG38MA8lvo/6UIUcuXKxY1yPC/wOjcHLAZXxnGA3kh0xiMgSNK7gtZSt25dSEVtK8K8sFO0EaNVEPfrr7/iAFFqKFKJqyRR4ebNm8HcRJlF6Y4EdRscasw9FXM2AgmZcbQJuDD6vMUAGwkk1RgiErcDobDpkhDbbUxA2kVdUa+h6HG1iSg37hkRh3g2hG/cIS6lDZ8lWMMxeuGFFzBt4Yq6w8ssAhGMsh/4nttCiITVjhsB6G+wqIMHD9qmY/G5kOCowh/q+3AQc+bMCaqCKd+6deuJEyfcXgXDbWU1IOW4kRTNWbGQLYSG59GoUSPCNyGRkIF40EYuTyLODyM6JwfFPXDgABY8xu2QLV3l2GZh1EgAkMzRVxs3btxbb72lFxFQzYfiIWmhpuCnEuoiiMgW/xK76KtJi8iWvqbb+Hhsj4VsiUG0OvK428o+cgYuaBQyXGFhFvFL6Otg1wggABdgIhkCImjrmrieVI4Dr9g2Ak/hj0DElrFBtkBhUGnEOv84vxqVUnN3n+otV3/L5mxxauCDatWqyfEpqECNaax4kBtQfmSUSW2BWUsexnpazBwChwthYwHoHS3EvLZ2FCS+FI6EBMVujEuaNCldfgy62wpRa9ctg7O/BfgEfo8wWUunqbpXhIK8K00OVAH4jiuGi4YbIVB+1I4U40Z4imS19eoMfSKqBaOWP39+vYsWCWJw1UeMGAHaorLmdGG5QBolprPNJSUFdKLyJ6qXyBoXvlu3bh71BQyWyhZbYYIjefHeSI0XNMhlEGKcZUucLbfUN3cRIZW6Ay4fzj7jZVFKefhANBTvR1UE8Hg4iE/Zeuqpp7wpR1AA55Ak0DjlIVAUStIT66bPRZPhvOvtmFRQK2bpXdYW0rh85dJ6D1O92FBAQY5se5/C53TbMFIj0O/To3AIOxxhEtA/tpk3b57eC7YOsxRCw0giIDWMMJs0kT7rQWrBT0LDkeaTQ0mxBq+xO55x/Pjx4KhE5tZeIEMCQ0Hb6ZIKEcfpkqi25ekcR3LbsSS864y9RrOSt/3xxx8dR/ppRAlRAg+05L/ARF5AorxKrX+P3oJNRIUg3fyUBbJFaQOfRZaBXJFizB9/3FcKfaQdjQVgo+QdoBzTIBUQcbsrwZ9F6h3/iXdNSVHwmWdAYsBN4cFx2M1T7927N0wHcYCBVapUWbx4MfkuXLdRo0aRZnA7tegtPzZx4MCBrMzNl3IVygh4TMRb3jZX35dwhJCFWQgDT1z3ovQp0iLK9R59aZViBAhVjxfv/Ud0o2ZBBFkO9RUvjZ0oBPBzOe7fMXCJY+Kc4WXjnyEi3meBn8CqJLisL7+j/9Bq3nPlxRtE2Xt9tCbBATUj1mHURHTq1Ml7okcvhp4zIq8eY6xdUrNOJlA13qO30N6xrWqXBKKSZXFr3N4JcRP5+64dLmH60VjoLYo+VF7V7SCoECt8I8OYy5/bFGnH3QGAAFz1HkY9MQ/CVsRG8viTTz4h6vKeG65e/DzyNFY8xRWD8Lklh7dGyAL5ewA2PpcN/jB+KAarASJqBUXDTjYGjsIVjK93LEI1L1vb2E7YQVUm2jHsVOkLItnkPyiZsXaFKls4pAT5akVkC+EFidC3f8BaCPEoCiJLCPgS0aNR8En0R/2txy7Sa0s7iqihTjwmhqsLy45nZnt9MlTZgsVUQCgSOUmtWrVsmHW4DhCodTgjRWP8sEykqZLyIY98NgTg5QD92NguX6Pjn0jdKb9YaeVGqLIFUkouiHQ1YouQ4U6ScYs0uwOyPi6XxHERpUcK1a0XWN8ObEn/cUoxowJp6lPC2wJUwYK2ov5QZYsVqegiwAT7JtjGqYxt0BveQz54q+HE4NSScfI4GuZPd8gEudB/3MFjnTh38S4QNNiCCWdcPlZ7EF3y+yqxmmIG++cAOC0KkuwtF9gNIgeIJ7CwrSnvaOkpTv9b+xwJsgWoCVBiIy8MessnBWZYnDlQu3ZtgiSpHnBchPQRkmdzrUS23NKjjuvErRFAGKwAANk23chW3PgZ1Vm8VI1jLr8K4bixZH5BUK294K68FWJ9G9RxbuiNGESQW6lptq5mZCt03kZ8BZAqXtKkMBPI23EzijKIKqyKjZGk46zFGo4TPRplL7cd1UQGEMABDjz++OP21Xwi+mZY/HKAAkOeHOLiRgZVAtREqZ/ZpZ6MdLh6k89tlt4Olsabp/zqAuLCjtQUkVa2vYxvnSUFaoC3+lLm9+Xtly2Y33lyvKtNzMivYLhRyAOmLBYsFwkjAuBdvTg48uSnqVTAxpESYBH2BV0iUOD9Ecd9UY3gIyTFbYW1fw/Wxc20BJMDvCfC86LYMDjkkYxCBMlaOpJk9JbjbQxiI/oDMALfy/Enk+OFYl54Jt2EpXbe3VHiTGMwOQD8jenBAQoCedRTYTo9iDF6y/nKBbaVl0HA6PG1pQYwvuhEiYLC824OhYRuNBgMwo0zAW2nxpA3ZeI9aUutLJBbDP+RYhC0q6EhVhygrBcwyX8le6wW9zOYslver8TT8h5s4kRv/gS0l9/gAHCnoin69PFqKnA/oEOMWxvZipFFAR0AaEktnvXdhSgQys/U8BqOTxzE+PIB9av8kAW8RKrH7RUjPyvEdgyiTNWDrXbZbREjW26cMe2hcsDEiaFy0Mx344CRLTfOmPZQOWBkK1QOmvluHDCy5cYZ0x4qB/4NtR6G+qNCyvgAAAAASUVORK5CYII=;" vertex="1" parent="1">
          <mxGeometry x="580" y="590" width="154.62" height="50" as="geometry" />
        </mxCell>
        <mxCell id="9ebUhUrwIjOz1uz_46qt-44" value="" style="shape=image;verticalLabelPosition=bottom;labelBackgroundColor=default;verticalAlign=top;aspect=fixed;imageAspect=0;image=data:image/png,iVBORw0KGgoAAAANSUhEUgAAAP8AAABCCAIAAAAXPpc2AAAAA3NCSVQICAjb4U/gAAAQkUlEQVR4Xu2dedRN1RvHUwkRJZkSMlUKmUNkyjyUDClDIjMRi6SFTMtY5mFlXhSphFIoY8msMlPmCpk1I7+P9ax1nN8Z9j3vfe97z7nv3f6wzt3jc57z7Gd/n2HvN8X169dv0f80B+KSA7fG5Vvrl9YcuMEBLf1aDuKXA1r64/fb6zfX0q9lIH45oKU/fr+9fnMt/VoG4pcDWvrj99sn6M1PnDgxZMiQBHXxpfGgQYOOHTvmcWot/R4ZFdfNTp48Wa9evcqVKwefCxBZvXr1n376yROpRLv0P80BBQfOnj37+OOPf/rpp4o2gapavHhxnjx5fv7555BUad3vSUfEbaMrV67UqlWrcePGtWvXjhUmsE299NJLjRo1unr1qprmFKwPdQtdG88ceP3117dv3758+fIUKVLY+YB4YQy0aNHiwQcftNcmvmTFihVr1qxJlSpVmjRpWrdufe+993oc87///qtYsWKZMmWGDx+u6hJyd9AN4pYDq1evTps27aFDhywcOH369AcffNCvX7+SJUsiW19//XVSsKhLly7Nmzf/+++/GXzTpk2PPvronj17vE/0448/smxWrlyp6HKLok5XxTMH/vrrr5w5cw4ePNjOBPw/8+bNO3jw4LRp05JI+hctWsTC+/PPP43ZR4wYUbRo0WvXrtnpcSvp0KHDww8//O+//7o10NLvxpl4Lwcz3HXXXRcvXlQwIumkH9fNs88+a576wIEDrLQNGzYo6LFUHT9+HPU/evRoty7a6lXBwritu3DhwrBhw4Da6dOnjz4T/vjjD9BU9uzZzVPnyJGDn5999pl3eujyyiuvDBw48PLly469tPQ7siXeC99++220PsjbF0Zs3boVuJIuXTrz7Bi+d955J6siQST16dPnn3/+kT3K3lFLv50n8V6CJwdxwW+I19wXXpw/f555LdJPScqUKc+dO5cgkthA6tevP2bMGEfvZ9JKP3EH3ALly5dPEMW6sb8cAF38+uuvXbt29YsMASpoegsBt912GztSQqnCfiD3YdmyZfaOSSv9LDscVYULF7ZPnLxL8NPF7gui+O+5556nnnrKr1e49VZnscQF5FalIJVoHbbvggUL7G2cp7G3C7tk7dq1xB3C7h6LHRH9XLlyER4K5r8BAwYouIrFSYyJTxaGnCmGTVBVhgwZaG/BKkSdYaxUJWg0PFdVqlQBhrB4LB0jIP24YI1BLRQfPXr0yJEjokUcgZd0NI9gfzG3jm7l9hGiXILufPHFF928bL6Xq6Wf2CoWJ+ISZaaZp5OYrsVRc+nSJdpkypQpDMKeeeYZ8SNZ+t4exljmLpMnT0a+yQEkrYLoGiQSBJk5c+btt98YGVY+8sgjS5cuRQuSdof/dc6cOebuH330EVY81hUdAWdvvPEGWlMasNaJohPyYBfeu3cvfiueqaJ86tSpTJovXz7mev755yXimMgXiVR3yBs3bhwvHqkBozwOSQ3M6G86J1AZiI9Qmd9dpD88HCGvs2XLlmrVqv0fPxOjirDNiQUS92ZEgn8yFDO9++678kyyUdasWZFdfuJ4Yg0QszBmZOVUrVqVlAxKWCEMwlBGLXY64T35yRJC0HmmccOGDbt37y7lhOKHDh1qdAnCA4q/ffv2QaAkPBoee+wxPpnHvkkX7apTp06FChXMZHz11VdIyObNmz3SZm4GuMBhihVq6eug+2nRrFkzVh47IPNhehvWN9FvdhAKkWNEk0g4mRjffvtttmzZXnjhBVlVrNrdu3fLMyoQnU20mZ8kaVAlMQt+koDas2dP0jAkfQq5xz6+7777pCP/E05/7733CLtgtaxfv152Q9JLAHDY75gTu3bt+u6771h+RhffH+AykUV7RAaWfvLJJzgffKdQTQAaat++fVYF6d7n999/p1JEwr1VODVvvvkmgBnkbGCB+fPn16xZM7x9HhsGBUoYwUqK20piYpoirJY0CV6YFY8cf/nll9IXTQz8kGewOBIsuh9wwgj4zqSKAEqpUqWM6aZPnw6kEcUv643YipmYM2fOoEQLFCjAIG3btpUqHipVqgRY2rZtG1uhG/F+lbMBtmzZ0pgdKw049+GHH7JfAwX9osr7vHAVbnfu3FndBcUE0EWV4k3HDM2bN+9zzz1HibpXQmvBz2XLlv3+++/50ACBcuXKoZETOojRHjXNq/3yyy/mEVzzfMQ/aoidZVZCIfv375dCco/AMPKMu+Duu+8WiZ81a9ZDDz1kdET033nnHbQLbShkcT/55JNSi8q8//770etYDpLHx/MXX3whtSwzauWZTalTp05mYlhv5p8+PrOSAazoToMGvGws6Y8//hitHxPSj8AhIugpH9lonhphRZOOGjUKjJCg/DY7/SRu8GoAB3OVq89H7DY3IwPMIxgG6M/q5MMzNLgIsxWTFODIT0YwjCe0IPtOkyZN2DcyZsxILUv5t99+44F/I0eO5D2LFCmycOFCQBQlwCpBRDyz28jC5RkdY451r1u3rn///jKI7//DWTAeC96ghEMhWMCIvtjrvlMYkgDZrv0K8drJQxjatGnTo0cP7MNEemALFizI+D/88IN5FgfcL9Ui/eaQx86dOwsVKiS1hA/EGBBEzjN7E7zjY3OkQNqwGFq1aiXPqVOnJuMC0c+fP3/x4sUprFGjBi/GasGHhX+NjjNmzGAbYeugFulnE8BNxEpFa2Layji4rrAQXn31VWAcHjH23ODgfohEUZmZG3PPGGPQnERHVfzlhrhKJYfiJiX2PYISkBYyB+Y215pRkJH4CuiPOOBzJCngheC0unXruhEJYIsy8uEL4jNgQfK/HBBxo81cjoMByTh16pSXxrHVBt3Nq7388stmsp2RzzfffAOeNmAPwAZkj743Fo2R+Aoo9zEkHmV1AqZ3m5HQRN++fd1qo1y+ZMmSp59+GvxJrg4fu1ixYsYlHzjKKHGjR5zXsYLT3N7CsZyIL+W4EM21zshHYA8gCb2OzwcPJiAE34Vl3N69e+OQIoiwY8cOQIvjrP4WgqywJbzQAB7Dp+bWkhgW/tnx48ejQvDMWpphfgDtSpcu7dY9muWYd5MmTcLKypw5M/PiicZTjhuHJcHPiRMnosjc6AGsUoVr3K1B7JY7Sr+zz+eJJ57gPc13QuCfMYeiYmXXY9di3/fyT+FSoDuG1+zZs+GJZesUPuAgR18oeBI15MP5V5zR6CkzMTjfcCHglccwe+uttxR0Yu+ywysaxG6VBK/YBs2v4KD78bGgOQD95sM13OhihKJw90oCQvA1AV/dDNjCI5gRcLrRF8U5d+5cQI44tWQ0tj7SpyIC/3A44uoNSSR+BU6UOzbjJCvmnSWshneOT46HmlXRrVs3x45SyDpPloqft+NsAN8xNPIR0G/5nOZsb0RBvKcKPibLKsAPTkzwj/lOvwgifqSWqEhI1pkj4ubGnPzg9hGySyzOwTvuuINmuMw5L+LWV8YBv0k6TUgaYrGB+OXNlDvofpIIaGHx9OOplG7cbwGEgk38BA0T2Pr8888nTJggNnXQmPL++++TGeKFqty5c+NIVbds0KAB2GDKlCmYE2IaYkSCD/Heqjt6rMXbKw5fj+0tzSSSbzc/ZDGQfyGpMorBCdwePnyYjcIItigax1YVXhzEVeTWoNxB+u2efqM14JjsA8ltohB1QnQWU8mSjhccvhB8tR8RciTPDGYcG1AIpMbDS/gWiIIdSQkuRVaCW/sol4sjToxd89SQzU/WtiTeKqhi7SH6WAj2U4WOvYhR4kEn2Tbx8NJx/JCFCJ6XD8c4zga9xY7h0kYQEu9jt2/YWIleof8sVaBJsKa9fbIswSgiVk08CF1Cviqry0hVUrxv06ZNUcCKBhGp4gMD8Xv16mUeDed9u3bt0OWk2VGuvt2SYCKCYkmGcaQNK4K7DcHAuNSw6UHCXvjgOFR4hQRDcUjib/DYXRS0JW/0pu4ng4BsTfz3bBCwgNitbH+MjlWHxxP2sQBIKg65IpNxAwBPx44dCTBz3RKQj4v+FCABNMj2SLoesTCEgwQ4guWsHPI1koJFbOtsShJ/ZFmyLYN2SKxCRomL831Zt0A1LGO32QV30VjyTdya8Ub4ANF6CBNteB1WAuogOhEP/OxIIy8IkMOH40akpVzSUS23pNy8xxNAz+kT9VjYT0Yig9GSEyrAISNpRz1CMqhFmxLlkGQY5FtwheN7YRTBUvAGK4R/6BGgIzJKDr1j+4gUouQQCz4H8kEQQ44CsgZQXuzqbN2KWfAIjR07FvtBslHcWuICAR6bc2Y4E0OoG2egHXe5DZL48gceeIDEKvSLl6HQ2mSdvfbaa6SgG+1v6n4+Z3DSm7y8j19tsmTJQtYdxg9J2grRhzw0qFqJJsUrgIM5V2kZGVxOimHI6QRDI8Rq6ZdYsnk0dDCQgc2Q/S3kLL40wJpnXovud8508IW+GJoU1yceYSPzNIYoV5MqQm8cTnJsDOLn7IeETo0GnD1ii3O8NcRxkOgXivTLcRFjdgefT/Qpi7kZSWMWz1jMUa4muESJEjRQSz8ImTYWpxA2Pb41kTD1FH7VCtkEbc0ERED3i9Ht11vpeSPIAU7bkTSOZawYU8Jh9kw4QGAYV00pJopsFYYyb4epEDHpx6uAyUtwHqcvh1qwqwJ7y0hkWZmMR+PgLNhGcceMOM7tDn662C/MCQijoJlETLuDKFHIB/cFZw7xQHFyBbmXWxsC8sKajPA4gPST68oCkMNQ9kEE8VuWB/s/LkWLTWnvaykh84zUKck/UzQGVpG+oc7RUHSnCm8vs9hP6ydK+omtGHc0qKfXtbHCAUmUwH51k37DhWp+I8LDBDQSet05XmAQlKQhKfiD9Kt9a4q+UrVq1Soe+FuOlpaJkv6Qs+oGMccBkttx6RLLw6/lSLyce7SEd8QYcFswjuNQSPyBA4NutREsR/px5trvk42A1RtBKvVQvnMALct9YUT93XK3MIvZ8AnkmUmV87J25er760AAtjg3tZBsYo/Ka+kPwgcKFg0cBwPHc0WFG1kkDnGczZwwzOUGZElEWfo9Ohu5UQYrhb9D4/A6HpOEdLO44gBhL04Gu70yh2A4yMo5B2mAciWKxA2tbu0jW84JNU4UYZoDnMAzmCikZiguuiIliVuxHGnQf6/XQSPoImQLqABgsHsJhTlkwnGTEo4+nOg4vknz5JrB6PANm4QZQWhG2ixkYK5Iyp2FBlJBOYeNU56EUDt5WvrtPNEltwAViGfL/dsxzQ6WJZcosznYQT/vpaU/pj9uEhJPKhs3dXJM3sthyySkIxFDcwADNxS5d6A4x2G09DuyRRfe4ICAGaQnRtnBYR0yT+1Xahuvo30+Mfplo0E2x7W54kD+nkU05ovoHOxd/GlrrsdUjKqlX8GceK/Ctc/NpPzB5yCnrzl+JE6fcQQP0Sdy59hACjXyUTBHV93gAFfGc96FFEZHwzGAPCIQwYWkJDOHvHdHS38AP1+wSMKfyEVD+A1DClNA6Ob2ChIuuXgmJD0a+YRkUbw34NAWB9i5wZc/sxB8XgwaNIi7FxR3lZpfQev+4H/QQFDIDrBx40bipoGgxp0IUjD4wygec0K19LszUtckdw5o5JPcv7B+P3cOaOl3542uSe4c0NKf3L+wfj93Dmjpd+eNrknuHPgfSEoG+m9QNTwAAAAASUVORK5CYII=;" vertex="1" parent="1">
          <mxGeometry x="580" y="640" width="193.18" height="50" as="geometry" />
        </mxCell>
        <mxCell id="9ebUhUrwIjOz1uz_46qt-45" value="" style="shape=image;verticalLabelPosition=bottom;labelBackgroundColor=default;verticalAlign=top;aspect=fixed;imageAspect=0;image=data:image/png,iVBORw0KGgoAAAANSUhEUgAAAMAAAAAlCAIAAACbN3FhAAAAA3NCSVQICAjb4U/gAAAKG0lEQVR4Xu2bdawVOxCHubi7a3C3EDy4uwQJ7m7BSSBIcEmw4G7B3d0hBE9wS3B39/eRkqZ3u7ucc/aed5f3dv+4uTudTtvpdOY30z0hP3/+jOA9ngYC1UDEQDt6/TwN/NKAZ0CeHTjSgGdAjtTndfYMyLMBRxrwDMiR+rzOngF5NuBIA54BOVKfw85nz569c+eOQyHh2z3EqwOF4wZUqVJl4cKFyZIlE3N48+bNlStXEiVKlD59+ogRf59tNmjatGmfP3+2mmeNGjWyZMli1RpseuRgD/A/lz9hwoS6detmyJBB18PNmzfjxIkjrWfq1KmPHj3KmTMnJnX48OH58+cXLFiQXgcOHFi0aNGIESMyZswYPXr0tm3b4rS2bdsWKVKkV69e9ejRI2XKlOFoQBEwcDc/T548OX78uJtnaDO358+fh4SEXL161ZSnX79+u3btEk379+8fO3asZOvbty+G9fHjRyhdunTBsGRTihQpevfuLV9nz5594sQJU/kQmcCxY8esWnX6p0+fNmzYoNNtKK7GQI8fP27ZsmWOHDn04/tXUA4ePJg8eXJT9/Dly5dDhw6VL19eLAQwNHDgQPZPvBKVWDvEb9++xYwZU3opbPHhw4elS5eWy//w4UPmzJmttJEwYcK1a9fu2LHDisFA37x589atW31k/s1mY1zh24SKy5Yte+bMGX0aX79+HTp06K1bt/Qml1AwnT59+hCDMmXKxD/79u0zTGzlypWjR4+WRIIRTki+rlmzhu25du0aFPQg6TNnzhSRS1K+f/9uv2TAU4UKFS5fvmzPJlpr1qyJWaucO3fuxOE1btx4+PDhly5d0oW4N4SNGzdu2LBh6owJZ6tWrRo8eLAAB0eOHNHX4ypK7ty5586dazqlSpUq4UtMm378+IGPadCggd7asGFD1q7T6fL69WudLijnz58vUaKEVaukP3v2DGeJKEnp3r37jBkzMG5Q14ABA6JEiQIUM8hxKYhmMcDPCxcuqO6Us4jvadasWdq0aU+ePOmXpyXBGTRo0JQpU/zqpTODSxgaJepNUFBxsWLFRBP4g/mr4UZ2uXHjRty4cYlupkJGjhwZP378JUuW6K0A6ubNmxvo7PHLly/fvXuH2+vUqVPTpk0NDHny5IkRI8by5csbNWqky5SUFStWYKCANkEBuRcoUEAMFy9ePPzlvXv30GG+fPmqVasme7nUgBYsWFC5cuUkSZKoC06VKhW+FAqaslGEadPbt2/9tTlTOZgFu2hjQIUKFYoc+ZdWiQXkR6ROuhyQb7t27XQ6lMmTJz99+nT16tVCiMpDGAIYlSlTRiUS5ubMmXP69Gk2/u7du+T/5cqVA2gbhHft2nXMmDH2BoTJLl68WHZcunRp7NixK1asKA29devWEOfNm6cakEtDGNksKMHK6xIXWKdfIYzTU6RIESuBwaDj/3EGSAamCDQjRgGUFC5cWI0UcnSsh+0Rr9jfuXPn1IlNnz4dAIQrVYl4RMxRUAjxVI9MkQphiL7qNAxLBp4zK5VI/EXJmzZtkkRAJxRQncpm7oFYHvsn7Dpq1KjAwAQJEhiMOnivnLOLFy+ynuAN4YvkPXv2kAOTBxEdSLmtIo6VKJAHOIbWiRMnkg1ItvXr19euXVtGCknHQ2DlAN6NGzdic0QQcU4kA/MhplA6UkekMiSd2fjx40las2fPrk+JGIRBgNOtUjbcD9hA7Yhjo0BAqVMSHzx4wP9p0qQJJd9gibyyfzguYh664xUbTJ069YsXLwTnunXr9C6CgntHBb48osJhJWfLli3kn1at0IPtgai7UP1r0aKFQKZU/KpXr24zH9MmHANFP8qDxCOVAd3q8JnioWHXqUeLXuAbykKdO3fmDGfLlq1nz54EGn3EUaNGgRp1uqRgW61atTJlwF8Anwmdpq2S2L9/fyY5a9Yslc0YwvB16dKlg1VlAhh269YNCjZIEmQ1TJ06dQgTvjx4Yysh0LF9aj82DEE1IHB60aJFqcSoGTIFG5v5WDVhf2oSDhtBpF69elb8gdEZghxblBO3b9/OZYipHLJxEL1pE+GyVq1apk2SiF/AgkuVKmUoHBhDWK9evd6/f4+VqAcC4A1yhLJs2bImTZoYzop8xTlZNflFJ5bjcv3qEobMQ4YMofZNDBW3UcQvtsfg3n0cjlTLwGkDn32UaWADErH3wGcKhmw2vs3qdhaXhmJNR9Hjl4ENyaRjIHTCq7ykEzyhDOj69etcwZAKUv1URSROnJijI+oBpnVV02kFTCRcxooVK+DudOSoEXdUCYRjxBrjd4QIRATOjOTE/eAdyaI5DFTzeCUbArLgk5zMR/QV1WfqW85FSQlsLTVV+UodIVq0aKbyAU9MQG8C1IOuCLV6k6QQH6mS7969Wz/YoQwIzEgfalwGWUyLYSgi4QZthgmrJmA7XtCJNOEvVQn3798nduBa7MVidpwTjhAFD3vOAFoR3rFjRx0+ByBKdmFHCSu+SMCV4oR0Tq4vgGVWZgc/qTsVEIyMYpLePZQBicJd/vz5DXxizfge4JEuQlJAmuyTDYNsatOmDZUJK06ufkAPVq1BpYvbqFy5cgVjFPIj0xQpGGPpMlFp0qRJdTrxixxTpwsK173cwxAfqQIICtkiVWnJH8qAhIfH3xjEgdKh6CVOAxs+3+azFZWZCpXVjKHz8QOGiHMO28NqM6Jsou5HjBfrVfk5f3nz5jUUNn0R6B4e4JFeYKTiDzgpXry46Ty5iASVk7JI3INmVGxAeTbUbTyVbHDf3r17pTg6kLaJChI+kIcrYtPBIFKTwKP68khzNhVFBYjjIgY1ZWAa0B2GOVPJAAWyBDIatRUfzgc6f7X1sByqelTJDasW1xemqkD/wHPMi7/kpDxVq1blJk6Ng+gqlAcidlDmEikYfGBq8nbq3x06dMBUqZOyc6r7Mh3YORFPSyX61KlThnsA3BKYFyRISMZMKY2QHnI4uGF1PqiUMGnSJDIOkCnAmdOGBqnc/9H7huEEgiGKjeMmRK1nilE4GzymI7LvoqRnaKXCLim/cgs9+yfRZzDKCYaMHwouS+cPBoWiav369cNQsr9XGTh8HDhOLgznEI6iuFcoWbKkYQJcX1DhczgrEwNyKDFMulMVpXagfonnUCz1EqCiQyF/b3c+5yC2GOZPpslNvsNFudSAWBVXSHyk53B5Xnc0QMTnDt+gCtBt1qxZuX1yqCL3ftJKng+YPXr0qGmE9og+aoAozIf33A4Z+PmWAaDJnaOPcizZHBpgULuD3EH+/A3qKP9t4SRA+ge1LLl9+/Z6UAtAFW7/XRh1YZJB8Q2r5SHwGiw0wO3N7du39cow7HzsTFKm1/wsJFmS3W5AlhP3GtyhAfdiIHfox5vFHzTgGdAfFOQ122vgXzIgysf6BZPVzPixHDkC37hYMbiQzjeWLpyVX1MCQctfNvre8R89WgTTje/Q0QAAAABJRU5ErkJggg==;" vertex="1" parent="1">
          <mxGeometry x="580" y="690" width="155.68" height="30" as="geometry" />
        </mxCell>
        <mxCell id="9ebUhUrwIjOz1uz_46qt-46" value="" style="shape=image;verticalLabelPosition=bottom;labelBackgroundColor=default;verticalAlign=top;aspect=fixed;imageAspect=0;image=data:image/png,iVBORw0KGgoAAAANSUhEUgAAADcAAAAbCAIAAABX14BcAAAAA3NCSVQICAjb4U/gAAACKUlEQVRYR+1Wv6t5YRy+5/o1mEQpUQaDhc1gQwwyGJTNopT/wWBiUrJIisWmrAZKSiKlFCGbrEp+JQPu8+3W6Zz3vV+drjf33nKmcz7v5/N8nvO87/M5h7vdbm+//nr/9Qz/EXyxZLdNf1nL0WiUyWTYafEoEif0eKfTmc1m/X6/Wq06nc5ms/koPKN60Y7vdjuz2ZzP5zUaDSN8NjByIUwgEGCDyhrlb7hHpCVrCe7hbbfbUqm0Xq/3+73Vao3H4zKZ7H8FP6PlcDh0u90gl06nc7nccrkMBoOfFM/nc71eJ+nC4/RlNBq9Xi8dZxLBDFGpVKDCox0OB6VSWavVEMF4wWwhGj1bS0gVjUY9Ho/f7+cFU6vVFoul3W4j0mq1XC4XoeU3z2U4HO71euS+iJ85jkulUpFIRBiuVCrT6TSZTBK1Op1uPp8PBgObzSaXk6zI5/uN+VXsi8RMIq3b7YK9z+cj4gqFYrPZFIvFQqFAI3+TJQ0kMTKZTPDhoL8aoD4ej8vlMi0kkJ99Lk0mE2SjX+l6vdrtdmw3vfQ1SxScTqfj8fhlwYPBWCy2WCxWqxWPA4MnEgl4HDcI4kcCQ5ToIvrbyGaz8AQgkIpZ4HA4tFptKBSCVx4kJyzHgGw0GqCLFmAM13+OdLSDqzBKkYADICwRsWRI5T4UmMHper3eYDDwmZfLBepg1NNH82dY3n8HevXZ7qEZSIm8WEpRSVrOS0tpOknJ+gADN1Zbt2KwugAAAABJRU5ErkJggg==;" vertex="1" parent="1">
          <mxGeometry x="690" y="570" width="40.74" height="20" as="geometry" />
        </mxCell>
        <mxCell id="9ebUhUrwIjOz1uz_46qt-47" value="" style="shape=image;verticalLabelPosition=bottom;labelBackgroundColor=default;verticalAlign=top;aspect=fixed;imageAspect=0;image=data:image/png,iVBORw0KGgoAAAANSUhEUgAAABUAAAAZCAIAAABRt/K6AAAAA3NCSVQICAjb4U/gAAABQklEQVQ4T2P8//8/AwWAiQK9IK1DXT8Lpv/fvHmzbt26z58/e3t7a2howBX8+/fv7du3oqKiKFqA4Y8Mjhw5IigoCFHBxsZ2+PBhuOyKFSuOHTuGpp4BmX/16lUZGZlp06bdu3fvypUrtbW1mpqaP3/+BKoBWl5SUoKmGchF0e/j43Pnzh1kRQUFBWvWrAGKbNiwYd++ffj0//r1a/bs2Wgqvn//np6eDhTMzs7G1AwUQcQ/KytrSkoKWnBycHAwMzMD/aWvr48Z0kSlH05OzgULFoSHh5OpH+iEL1++8PHxkan/z58/YWFhWDUT5f5nz57Z29uTqf/v37/ANMfEhDOb4ZSAWHj69Gk5OTlclhN2/65du2xsbPDoR0l/mCnExcXl0aNHmOJwEQLuV1NTk5WVxWM/I9AkPNIEpQjYP+z1AwDDbUUN2YfcGQAAAABJRU5ErkJggg==;" vertex="1" parent="1">
          <mxGeometry x="550" y="575" width="16.8" height="20" as="geometry" />
        </mxCell>
        <mxCell id="9ebUhUrwIjOz1uz_46qt-49" value="\(T_1\) relaxation error" style="shape=step;perimeter=stepPerimeter;whiteSpace=wrap;html=1;fixedSize=1;fillColor=#647687;fontColor=#ffffff;strokeColor=#314354;" vertex="1" parent="1">
          <mxGeometry x="403.26" y="540" width="180" height="25" as="geometry" />
        </mxCell>
        <mxCell id="9ebUhUrwIjOz1uz_46qt-50" value="\(T_2\) dephasing error" style="shape=step;perimeter=stepPerimeter;whiteSpace=wrap;html=1;fixedSize=1;fillColor=#647687;fontColor=#ffffff;strokeColor=#314354;" vertex="1" parent="1">
          <mxGeometry x="567.29" y="540" width="160" height="25" as="geometry" />
        </mxCell>
        <mxCell id="9ebUhUrwIjOz1uz_46qt-51" value="Assuming initialization&lt;br&gt;and measurement processes are perfect" style="text;html=1;strokeColor=none;fillColor=none;align=center;verticalAlign=middle;whiteSpace=wrap;rounded=0;" vertex="1" parent="1">
          <mxGeometry x="617" y="450" width="140" height="60" as="geometry" />
        </mxCell>
      </root>
    </mxGraphModel>
  </diagram>
</mxfile>
